<svg width="315" height="344" viewBox="0 0 315 344" fill="none" xmlns="http://www.w3.org/2000/svg">
<path fill-rule="evenodd" clip-rule="evenodd" d="M152.95 0.0615054C190.625 -1.68679 216.511 34.1763 239.319 64.2796C261.193 93.1511 283.832 126.07 275.067 161.241C266.437 195.87 231.938 215.82 198.496 228.092C169.443 238.754 138.874 234.012 110.51 221.628C80.3207 208.448 47.7738 191.216 40.377 159.058C32.9686 126.849 56.9742 98.8122 76.06 71.8556C97.3876 41.7328 116.134 1.76992 152.95 0.0615054Z" fill="#C8C8FF"/>
<g clip-path="url(#clip0_357_1519)" filter="url(#filter0_dddd_357_1519)">
<path d="M272 172.559H43V172.673H272V172.559Z" fill="#EBEBEB"/>
<path d="M246.929 177.789H223.617V177.903H246.929V177.789Z" fill="#EBEBEB"/>
<path d="M88.6488 176.437H67.0266V176.551H88.6488V176.437Z" fill="#EBEBEB"/>
<path d="M225.284 175.669H216.495V175.784H225.284V175.669Z" fill="#EBEBEB"/>
<path d="M194.699 178.698H188.25V178.812H194.699V178.698Z" fill="#EBEBEB"/>
<path d="M184.169 178.698H167.938V178.812H184.169V178.698Z" fill="#EBEBEB"/>
<path d="M158.512 176.77H132.411V176.884H158.512V176.77Z" fill="#EBEBEB"/>
<path d="M151.546 152.187H63.1108C62.418 152.186 61.754 151.911 61.2646 151.422C60.7751 150.933 60.5002 150.27 60.5002 149.579V25.5994C60.5063 24.9125 60.7838 24.2556 61.2726 23.7716C61.7614 23.2875 62.422 23.0153 63.1108 23.0142H151.546C152.24 23.0142 152.905 23.2889 153.395 23.7781C153.886 24.2672 154.161 24.9306 154.161 25.6223V149.579C154.161 150.271 153.886 150.934 153.395 151.423C152.905 151.912 152.24 152.187 151.546 152.187ZM63.1108 23.1055C62.4484 23.1067 61.8135 23.37 61.3456 23.8376C60.8776 24.3052 60.6147 24.9388 60.6147 25.5994V149.579C60.6147 150.24 60.8776 150.873 61.3456 151.341C61.8135 151.808 62.4484 152.072 63.1108 152.073H151.546C152.209 152.072 152.844 151.809 153.313 151.341C153.782 150.874 154.046 150.24 154.047 149.579V25.5994C154.046 24.9384 153.782 24.3047 153.313 23.8373C152.844 23.3699 152.209 23.1067 151.546 23.1055H63.1108Z" fill="#EBEBEB"/>
<path d="M250.616 152.187H162.176C161.483 152.186 160.819 151.911 160.328 151.422C159.838 150.933 159.562 150.27 159.561 149.579V25.5994C159.568 24.9121 159.847 24.2552 160.336 23.7713C160.826 23.2874 161.487 23.0153 162.176 23.0142H250.616C251.304 23.0165 251.963 23.2892 252.451 23.7732C252.939 24.2571 253.216 24.9133 253.222 25.5994V149.579C253.222 150.269 252.948 150.931 252.459 151.42C251.971 151.909 251.308 152.185 250.616 152.187ZM162.176 23.1055C161.513 23.1067 160.878 23.3699 160.409 23.8373C159.941 24.3047 159.677 24.9384 159.676 25.5994V149.579C159.677 150.24 159.941 150.874 160.409 151.341C160.878 151.809 161.513 152.072 162.176 152.073H250.616C251.279 152.072 251.914 151.809 252.383 151.341C252.852 150.874 253.115 150.24 253.117 149.579V25.5994C253.115 24.9384 252.852 24.3047 252.383 23.8373C251.914 23.3699 251.279 23.1067 250.616 23.1055H162.176Z" fill="#EBEBEB"/>
<path d="M76.0401 129.687H138.191V36.9181L76.0401 36.9181L76.0401 129.687Z" fill="#E6E6E6"/>
<path d="M74.6616 129.687H136.812V36.9181L74.6616 36.9181L74.6616 129.687Z" fill="#F5F5F5"/>
<path d="M134.33 126.91V39.6953H77.1394V126.91H134.33Z" fill="white"/>
<path d="M78.1836 126.91V39.6953H77.1394V126.91H78.1836Z" fill="#E6E6E6"/>
<path d="M75.6874 70.6138L135.786 70.6138V66.8866L75.6874 66.8866V70.6138Z" fill="#F5F5F5"/>
<path d="M71.9548 32.3184H140.893C140.994 32.3196 141.091 32.3605 141.162 32.4323C141.233 32.5042 141.273 32.6011 141.273 32.702C141.273 32.8026 141.233 32.899 141.162 32.9701C141.091 33.0412 140.994 33.0812 140.893 33.0812H71.9548C71.854 33.0812 71.7573 33.0412 71.686 32.9701C71.6148 32.899 71.5747 32.8026 71.5747 32.702C71.5747 32.6011 71.6146 32.5042 71.6858 32.4323C71.7569 32.3605 71.8536 32.3196 71.9548 32.3184Z" fill="#E6E6E6"/>
<path d="M69.6646 32.7023C69.6683 33.0782 69.7833 33.4446 69.9954 33.7554C70.2074 34.0663 70.5069 34.3076 70.8562 34.4489C71.2055 34.5903 71.5889 34.6254 71.9582 34.5499C72.3275 34.4743 72.666 34.2915 72.9313 34.0244C73.1966 33.7573 73.3767 33.4179 73.4489 33.0489C73.5211 32.68 73.4822 32.2979 73.3372 31.9509C73.1921 31.604 72.9473 31.3076 72.6336 31.0991C72.32 30.8906 71.9514 30.7793 71.5745 30.7793C71.3221 30.7793 71.0723 30.8292 70.8394 30.926C70.6065 31.0229 70.3951 31.1648 70.2175 31.3436C70.0399 31.5224 69.8996 31.7346 69.8047 31.9678C69.7098 32.201 69.6622 32.4506 69.6646 32.7023Z" fill="#E6E6E6"/>
<path d="M137.673 34.8307C137.81 34.8307 137.941 34.7769 138.037 34.6811C138.134 34.5853 138.189 34.4552 138.191 34.3191V33.2137C138.189 33.0776 138.134 32.9475 138.037 32.8517C137.941 32.7559 137.81 32.7021 137.673 32.7021C137.537 32.7021 137.407 32.756 137.31 32.852C137.214 32.9479 137.16 33.078 137.16 33.2137V34.3191C137.16 34.4548 137.214 34.5849 137.31 34.6808C137.407 34.7768 137.537 34.8307 137.673 34.8307Z" fill="#E6E6E6"/>
<path d="M77.7119 34.8307C77.8484 34.8307 77.9794 34.7769 78.0763 34.6811C78.1732 34.5853 78.2283 34.4552 78.2295 34.3191V33.2137C78.2283 33.0776 78.1732 32.9475 78.0763 32.8517C77.9794 32.7559 77.8484 32.7021 77.7119 32.7021C77.5759 32.7021 77.4454 32.756 77.3492 32.852C77.253 32.9479 77.199 33.078 77.199 33.2137V34.3191C77.199 34.4548 77.253 34.5849 77.3492 34.6808C77.4454 34.7768 77.5759 34.8307 77.7119 34.8307Z" fill="#E6E6E6"/>
<path opacity="0.5" d="M72.0739 120.15L135.782 120.15V32.6978L72.0739 32.6978L72.0739 120.15Z" fill="#E0E0E0"/>
<path d="M129.631 32.7023C129.634 33.0784 129.75 33.445 129.962 33.7559C130.174 34.0668 130.474 34.3081 130.823 34.4493C131.173 34.5906 131.557 34.6254 131.926 34.5495C132.295 34.4736 132.634 34.2903 132.899 34.0228C133.164 33.7552 133.344 33.4154 133.416 33.0461C133.487 32.6769 133.448 32.2947 133.302 31.9478C133.156 31.6009 132.911 31.3048 132.596 31.0969C132.282 30.8889 131.913 30.7784 131.536 30.7793C131.284 30.7793 131.034 30.8292 130.802 30.9261C130.569 31.023 130.358 31.165 130.181 31.3439C130.003 31.5228 129.864 31.7349 129.769 31.9681C129.675 32.2013 129.628 32.4508 129.631 32.7023Z" fill="#E6E6E6"/>
<path d="M128.481 170.782H140.746V143.655H128.481V170.782Z" fill="#F0F0F0"/>
<path d="M77.8905 172.5H138.388V170.782H77.8905V172.5Z" fill="#F0F0F0"/>
<path d="M128.477 143.655H75.5364V170.782H128.477V143.655Z" fill="#F5F5F5"/>
<path d="M123.654 146.994H80.3591V155.891H123.654V146.994Z" fill="#F0F0F0"/>
<path d="M123.654 158.545H80.3591V167.443H123.654V158.545Z" fill="#F0F0F0"/>
<path d="M96.4898 152.05H107.523C107.822 152.05 108.063 151.809 108.063 151.511V151.37C108.063 151.072 107.822 150.831 107.523 150.831H96.4898C96.1913 150.831 95.9494 151.072 95.9494 151.37V151.511C95.9494 151.809 96.1913 152.05 96.4898 152.05Z" fill="#F5F5F5"/>
<path d="M96.4898 163.602H107.523C107.822 163.602 108.063 163.36 108.063 163.063V162.921C108.063 162.623 107.822 162.382 107.523 162.382H96.4898C96.1913 162.382 95.9494 162.623 95.9494 162.921V163.063C95.9494 163.36 96.1913 163.602 96.4898 163.602Z" fill="#F5F5F5"/>
<path d="M99.2974 139.092C99.2974 139.092 99.1463 143.659 93.4946 143.659C87.8429 143.659 87.6963 139.092 87.6963 139.092H99.2974Z" fill="#F0F0F0"/>
<path d="M112.52 139.092C112.52 139.092 112.373 143.659 106.717 143.659C101.061 143.659 100.919 139.092 100.919 139.092H112.52Z" fill="#F0F0F0"/>
<path d="M99.2974 136.063C99.2974 136.063 99.1463 140.631 93.4946 140.631C87.8429 140.631 87.6963 136.063 87.6963 136.063H99.2974Z" fill="#F0F0F0"/>
<path d="M112.52 136.063C112.52 136.063 112.373 140.631 106.717 140.631C101.061 140.631 100.919 136.063 100.919 136.063H112.52Z" fill="#F0F0F0"/>
<path d="M125.742 139.092C125.742 139.092 125.596 143.659 119.944 143.659C114.292 143.659 114.141 139.092 114.141 139.092H125.742Z" fill="#F0F0F0"/>
<path d="M125.742 136.063C125.742 136.063 125.596 140.631 119.944 140.631C114.292 140.631 114.141 136.063 114.141 136.063H125.742Z" fill="#F0F0F0"/>
<path d="M200.534 90.437H237.572V37.1874L200.534 37.1874V90.437Z" fill="#E6E6E6"/>
<path d="M190.252 90.437H233.391V37.1874L190.252 37.1874V90.437Z" fill="#F5F5F5"/>
<path d="M227.876 87.0162V40.6089H195.766V87.0162H227.876Z" fill="white"/>
<path d="M212.116 87.61V40.0151H211.53V87.61H212.116Z" fill="#F5F5F5"/>
<path d="M237.045 169.772H246.302V109.247H237.045V169.772Z" fill="#F0F0F0"/>
<path d="M167.526 172.55H243.861V169.768H167.526V172.55Z" fill="#F0F0F0"/>
<path d="M237.045 109.242H165.084V169.768H237.045V109.242Z" fill="#F5F5F5"/>
<path d="M232.044 131.117H170.086V145.514H232.044V131.117Z" fill="#F0F0F0"/>
<path d="M232.044 149.967H170.086V164.364H232.044V149.967Z" fill="#F0F0F0"/>
<path d="M183.198 132.108H218.936C219.455 132.108 219.875 131.689 219.875 131.172V131.071C219.875 130.554 219.455 130.135 218.936 130.135H183.198C182.68 130.135 182.259 130.554 182.259 131.071V131.172C182.259 131.689 182.68 132.108 183.198 132.108Z" fill="#F5F5F5"/>
<path d="M183.198 150.954H218.936C219.455 150.954 219.875 150.535 219.875 150.018V149.917C219.875 149.4 219.455 148.981 218.936 148.981H183.198C182.68 148.981 182.259 149.4 182.259 149.917V150.018C182.259 150.535 182.68 150.954 183.198 150.954Z" fill="#F5F5F5"/>
<path d="M232.044 112.271H170.086V126.668H232.044V112.271Z" fill="#F0F0F0"/>
<path d="M183.198 113.262H218.936C219.455 113.262 219.875 112.842 219.875 112.325V112.225C219.875 111.708 219.455 111.288 218.936 111.288H183.198C182.68 111.288 182.259 111.708 182.259 112.225V112.325C182.259 112.842 182.68 113.262 183.198 113.262Z" fill="#F5F5F5"/>
<path d="M178.389 67.8321C179.804 67.8321 181.162 67.2714 182.162 66.2735C183.163 65.2756 183.725 63.9221 183.725 62.5108C183.725 61.0995 183.163 59.746 182.162 58.748C181.162 57.7501 179.804 57.1895 178.389 57.1895H177.739V67.8321H178.389Z" fill="#E0E0E0"/>
<path d="M177.739 67.8321C180.686 67.8321 183.075 65.4496 183.075 62.5108C183.075 59.5719 180.686 57.1895 177.739 57.1895C174.792 57.1895 172.403 59.5719 172.403 62.5108C172.403 65.4496 174.792 67.8321 177.739 67.8321Z" fill="#F5F5F5"/>
<path d="M177.194 63.5153C174.348 63.5117 171.62 62.3824 169.609 60.3752C167.597 58.368 166.466 55.6468 166.463 52.8088V46.4141C166.463 46.1476 166.569 45.892 166.758 45.7035C166.947 45.5151 167.203 45.4092 167.471 45.4092C167.738 45.4092 167.994 45.5151 168.183 45.7035C168.372 45.892 168.478 46.1476 168.478 46.4141V52.8088C168.486 55.1082 169.405 57.3115 171.035 58.9374C172.665 60.5634 174.875 61.4801 177.18 61.4873C177.313 61.4873 177.444 61.5133 177.566 61.5638C177.688 61.6143 177.799 61.6883 177.893 61.7816C177.986 61.8749 178.061 61.9857 178.111 62.1076C178.162 62.2295 178.188 62.3602 178.188 62.4922C178.188 62.6241 178.162 62.7548 178.111 62.8767C178.061 62.9986 177.986 63.1094 177.893 63.2027C177.799 63.296 177.688 63.3701 177.566 63.4206C177.444 63.4711 177.313 63.4971 177.18 63.4971L177.194 63.5153Z" fill="#E0E0E0"/>
<path d="M158.416 52.0464H176.534C176.818 52.0459 177.097 51.9849 177.355 51.8673C177.612 51.7498 177.842 51.5785 178.027 51.365C178.212 51.1515 178.35 50.9009 178.43 50.6299C178.509 50.359 178.53 50.0741 178.49 49.7945L176.933 39.0012C176.753 37.7615 176.132 36.6278 175.182 35.8082C174.232 34.9885 173.018 34.5378 171.762 34.5386H163.198C161.942 34.5378 160.727 34.9885 159.778 35.8082C158.828 36.6278 158.206 37.7615 158.027 39.0012L156.465 49.7762C156.421 50.0569 156.439 50.3437 156.517 50.6169C156.595 50.8901 156.732 51.1432 156.917 51.3589C157.102 51.5746 157.332 51.7477 157.591 51.8663C157.85 51.985 158.131 52.0464 158.416 52.0464Z" fill="#F5F5F5"/>
<path d="M157.5 193.186C206.544 193.186 246.302 190.871 246.302 188.016C246.302 185.16 206.544 182.845 157.5 182.845C108.456 182.845 68.6985 185.16 68.6985 188.016C68.6985 190.871 108.456 193.186 157.5 193.186Z" fill="#F5F5F5"/>
<path d="M177.565 180.689L174.098 179.607L175.692 171.307L179.159 172.394L177.565 180.689Z" fill="#FF8B7B"/>
<path d="M209.052 184.316H205.416L202.585 175.921H206.217L209.052 184.316Z" fill="#FF8B7B"/>
<path d="M204.931 183.896H209.364C209.436 183.896 209.506 183.92 209.562 183.965C209.617 184.01 209.656 184.073 209.671 184.143L210.39 187.363C210.407 187.441 210.407 187.523 210.388 187.601C210.369 187.679 210.333 187.752 210.281 187.814C210.23 187.876 210.166 187.925 210.092 187.959C210.019 187.992 209.939 188.009 209.859 188.007C208.43 187.984 207.39 187.902 205.595 187.902C204.491 187.902 201.161 188.016 199.641 188.016C198.12 188.016 197.919 186.509 198.541 186.376C201.34 185.764 203.451 184.924 204.349 184.12C204.508 183.976 204.716 183.896 204.931 183.896Z" fill="#263238"/>
<path d="M174.249 179.228L178.037 180.411C178.105 180.433 178.164 180.478 178.204 180.537C178.244 180.597 178.262 180.668 178.257 180.74L177.973 184.028C177.966 184.108 177.942 184.185 177.901 184.254C177.861 184.322 177.805 184.381 177.738 184.425C177.672 184.469 177.596 184.497 177.517 184.508C177.437 184.518 177.357 184.51 177.281 184.485C175.907 184.028 173.974 183.339 172.243 182.804C170.237 182.174 168.309 181.608 165.955 180.868C164.53 180.411 164.581 178.867 165.222 178.922C168.121 179.178 170.516 179.945 173.315 179.237C173.619 179.145 173.943 179.142 174.249 179.228Z" fill="#263238"/>
<path d="M195.418 75.5423C194.809 76.3964 194.149 77.3099 193.526 78.2098C192.903 79.1096 192.285 80.0368 191.671 80.9503C190.462 82.7774 189.294 84.6273 188.259 86.4909C187.989 86.9477 187.769 87.4044 187.517 87.8932C187.265 88.3819 187.059 88.8067 186.858 89.2635C186.656 89.7202 186.464 90.177 186.29 90.6337L186.185 90.9078C186.177 90.9306 186.166 90.9521 186.153 90.9718C186.153 90.9718 186.153 90.9718 186.153 90.7708V90.6749C186.153 90.6292 186.153 90.5881 186.153 90.5378C186.145 90.4623 186.131 90.3874 186.111 90.314C186.111 90.2546 186.079 90.1953 186.061 90.1404L186.033 90.0537L185.978 89.9258C185.938 89.8348 185.892 89.7463 185.841 89.6608C185.764 89.5366 185.675 89.4202 185.575 89.3137C185.309 89.0211 184.972 88.8023 184.595 88.6788C184.417 88.6195 184.233 88.5827 184.046 88.5692C183.96 88.5624 183.875 88.5624 183.789 88.5692H183.606C183.418 88.5904 183.233 88.6365 183.056 88.7062C182.963 88.7436 182.871 88.7863 182.782 88.8341C182.729 88.8629 182.679 88.895 182.631 88.93L182.539 89.0031L182.479 89.0533C182.444 89.0813 182.411 89.1135 182.383 89.1493C182.351 89.2041 182.424 89.1493 182.484 89.0762C182.759 88.7793 183.116 88.3454 183.437 87.9251L184.444 86.6097C185.131 85.7281 185.818 84.8283 186.551 83.9604L188.96 85.2394C188.626 86.363 188.227 87.4364 187.792 88.5144C187.563 89.0488 187.334 89.5878 187.082 90.1222C186.814 90.7033 186.508 91.2664 186.166 91.8076C186.037 92.0122 185.891 92.2062 185.731 92.3877C185.653 92.4745 185.571 92.5569 185.484 92.6344L185.383 92.7166L185.246 92.8171C185.183 92.8623 185.117 92.9035 185.049 92.9404C184.945 92.9984 184.838 93.0503 184.728 93.0957C184.535 93.1697 184.334 93.2188 184.128 93.2419H183.931C183.849 93.2419 183.753 93.2419 183.661 93.2419C183.466 93.2291 183.273 93.1907 183.089 93.1277C182.884 93.0618 182.69 92.9681 182.511 92.8491C182.342 92.7422 182.188 92.6131 182.053 92.4654C181.947 92.3523 181.854 92.2283 181.774 92.0954C181.717 92.0028 181.667 91.9067 181.623 91.8076L181.563 91.666L181.531 91.5701C181.508 91.5062 181.49 91.4377 181.472 91.3737C181.453 91.3098 181.435 91.1864 181.421 91.0951V90.9032V90.7571C181.418 90.5494 181.43 90.3418 181.458 90.1359C181.458 89.9988 181.495 89.8847 181.513 89.7842C181.55 89.5786 181.586 89.4096 181.627 89.2406C181.777 88.6215 181.962 88.0115 182.182 87.4136C182.388 86.8243 182.64 86.2625 182.855 85.6961C183.07 85.1297 183.345 84.5862 183.611 84.0609C184.646 81.953 185.798 79.9036 187.059 77.922C187.682 76.9445 188.319 75.9762 188.988 75.0307C189.656 74.0852 190.311 73.1488 191.053 72.1987L195.418 75.5423Z" fill="#FF8B7B"/>
<path d="M197.346 73.0527C198.051 76.4419 190.449 84.9285 190.449 84.9285L183.876 79.9041C185.413 77.1377 187.244 74.5437 189.336 72.1665C192.445 68.8002 196.545 69.33 197.346 73.0527Z" fill="#4E4DFF"/>
<path opacity="0.2" d="M191.85 75.4143C190.018 76.0812 189.052 80.5163 187.998 83.0696L190.43 84.9241C192.247 82.8689 193.91 80.6826 195.404 78.3832C194.529 76.4557 193.943 74.656 191.85 75.4143Z" fill="black"/>
<path opacity="0.2" d="M175.692 171.312L174.872 175.587L178.339 176.67L179.163 172.395L175.692 171.312Z" fill="black"/>
<path opacity="0.2" d="M206.222 175.925H202.585L204.046 180.251H207.683L206.222 175.925Z" fill="black"/>
<path d="M213.587 72.8836C212.192 76.6908 211.083 80.5963 210.271 84.5677C209.689 87.3357 209.254 89.9895 208.897 92.4012C208.109 98.0468 207.866 102.386 207.573 103.82C204.756 103.364 194.149 101.737 188.369 100.833C187.494 80.0731 193.407 69.9192 193.407 69.9192C194.961 69.7626 196.522 69.7031 198.083 69.7411C198.408 69.7411 198.743 69.7411 199.082 69.7868C201.826 70.0541 204.552 70.4781 207.248 71.0566C207.761 71.1616 208.274 71.2804 208.778 71.4037C211.365 72.0615 213.587 72.8836 213.587 72.8836Z" fill="#4E4DFF"/>
<path opacity="0.2" d="M210.93 80.3745L206.905 84.8326C206.905 84.8326 206.172 92.8305 208.356 96.9505C208.508 95.5802 208.691 94.0409 208.92 92.3829C209.254 89.9712 209.689 87.3174 210.294 84.5494C210.596 83.106 210.939 81.6307 211.324 80.1416L210.93 80.3745Z" fill="black"/>
<path d="M207.907 61.7798C206.991 64.3194 205.718 69.0378 207.284 71.0749C206.343 71.7896 205.259 72.2948 204.106 72.5564C202.952 72.818 201.756 72.8299 200.598 72.5914C198.344 72.1894 198.477 70.5999 199.118 69.8051C202.159 69.5631 202.42 67.3843 202.228 65.2695L207.907 61.7798Z" fill="#FF8B7B"/>
<path opacity="0.2" d="M205.59 63.2095L202.228 65.2695C202.279 65.7627 202.287 66.2594 202.251 66.754C203.396 66.754 205.127 65.7811 205.425 64.63C205.565 64.1701 205.621 63.689 205.59 63.2095Z" fill="black"/>
<path d="M201.766 50.877C199.201 49.6895 198.038 58.2766 199.838 59.5145C201.638 60.7523 206.561 53.0878 201.766 50.877Z" fill="#263238"/>
<path d="M208.837 57.888C208.063 61.4005 207.788 63.4971 205.709 65.0363C202.581 67.3567 198.445 65.0363 198.147 61.3822C197.882 58.0798 199.192 52.891 202.892 52.0186C203.707 51.823 204.558 51.8382 205.365 52.0628C206.172 52.2873 206.909 52.7138 207.504 53.3017C208.1 53.8897 208.535 54.6196 208.768 55.4222C209.001 56.2248 209.025 57.0736 208.837 57.888Z" fill="#FF8B7B"/>
<path d="M208.045 61.3231C206.446 62.2366 206.51 51.4478 209.634 53.0328C214.929 55.714 211.823 59.1443 208.045 61.3231Z" fill="#263238"/>
<path d="M211.805 54.9877C210.353 56.3123 196.961 48.0129 202.682 46.6746C209.089 45.1627 214.59 52.4298 211.805 54.9877Z" fill="#263238"/>
<path d="M209.025 55.12C207.39 56.2117 191.873 53.1468 195.651 48.6568C200.167 43.2853 212.414 52.8545 209.025 55.12Z" fill="#263238"/>
<path d="M209.831 62.0492C209.233 62.7291 208.391 63.146 207.486 63.2094C206.286 63.2825 205.938 62.1543 206.483 61.154C206.969 60.2405 208.182 59.1351 209.286 59.5325C210.39 59.9299 210.555 61.2042 209.831 62.0492Z" fill="#FF8B7B"/>
<path d="M173.823 174.381L179.695 176.208C179.695 176.208 185.621 154.795 187.641 143.687C188.255 140.307 189.564 135.639 191.135 130.655C193.114 124.379 195.505 117.61 197.442 112.321C199.485 106.744 201.014 102.806 201.014 102.806L188.387 100.842C188.387 100.842 178.133 130.13 176.814 141.115C175.444 152.539 173.823 174.381 173.823 174.381Z" fill="#4E4DFF"/>
<path opacity="0.6" d="M173.823 174.381L179.695 176.208C179.695 176.208 185.621 154.795 187.641 143.687C188.255 140.307 189.564 135.639 191.135 130.655C193.114 124.379 195.505 117.61 197.442 112.321C199.485 106.744 201.014 102.806 201.014 102.806L188.387 100.842C188.387 100.842 178.133 130.13 176.814 141.115C175.444 152.539 173.823 174.381 173.823 174.381Z" fill="black"/>
<path opacity="0.2" d="M191.135 130.664C193.114 124.388 195.505 117.619 197.442 112.33L196.366 109.388C192.899 112.85 191.062 124.334 191.135 130.664Z" fill="black"/>
<path d="M195.198 101.911C195.198 101.911 193.929 132.944 194.561 143.541C195.253 155.147 202.347 179.415 202.347 179.415H209.002C209.002 179.415 206.144 157.381 205.017 146.099C203.735 133.25 207.601 103.839 207.601 103.839L195.198 101.911Z" fill="#4E4DFF"/>
<path opacity="0.6" d="M195.198 101.911C195.198 101.911 193.929 132.944 194.561 143.541C195.253 155.147 202.347 179.415 202.347 179.415H209.002C209.002 179.415 206.144 157.381 205.017 146.099C203.735 133.25 207.601 103.839 207.601 103.839L195.198 101.911Z" fill="black"/>
<path d="M201.541 179.557H209.378V177.223L200.616 177.067L201.541 179.557Z" fill="#4E4DFF"/>
<path d="M173.04 174.29L180.038 176.478L180.748 174.222L172.962 171.659L173.04 174.29Z" fill="#4E4DFF"/>
<path d="M203.3 58.0387C203.254 58.3264 203.066 58.5365 202.879 58.4954C202.691 58.4543 202.572 58.2077 202.617 57.9199C202.663 57.6322 202.851 57.422 203.039 57.4632C203.227 57.5043 203.332 57.7509 203.3 58.0387Z" fill="#263238"/>
<path d="M200.016 57.5319C199.97 57.8197 199.778 58.0298 199.59 57.9887C199.402 57.9476 199.283 57.7055 199.329 57.4132C199.375 57.1208 199.563 56.9153 199.755 56.9564C199.947 56.9975 200.057 57.2396 200.016 57.5319Z" fill="#263238"/>
<path d="M201.033 57.8379C200.549 58.6654 199.954 59.423 199.265 60.0897C199.442 60.2585 199.654 60.3868 199.885 60.4657C200.117 60.5446 200.363 60.5722 200.607 60.5465L201.033 57.8379Z" fill="#FF5652"/>
<path d="M201.706 61.5285C201.579 61.525 201.452 61.5128 201.326 61.492C201.315 61.4909 201.304 61.4875 201.294 61.482C201.284 61.4765 201.275 61.469 201.268 61.46C201.261 61.451 201.257 61.4406 201.254 61.4297C201.251 61.4187 201.251 61.4072 201.253 61.3961C201.257 61.3743 201.269 61.3549 201.287 61.3414C201.305 61.328 201.327 61.3214 201.349 61.323C201.708 61.3897 202.078 61.3697 202.428 61.2649C202.777 61.16 203.097 60.9732 203.359 60.7201C203.368 60.7119 203.377 60.7054 203.388 60.701C203.398 60.6966 203.41 60.6943 203.421 60.6943C203.433 60.6943 203.444 60.6966 203.455 60.701C203.465 60.7054 203.475 60.7119 203.483 60.7201C203.491 60.7277 203.498 60.7369 203.502 60.7472C203.506 60.7574 203.509 60.7683 203.509 60.7794C203.509 60.7905 203.506 60.8015 203.502 60.8117C203.498 60.8219 203.491 60.8311 203.483 60.8388C203.25 61.0683 202.972 61.2479 202.666 61.3665C202.36 61.4851 202.034 61.5402 201.706 61.5285Z" fill="#263238"/>
<path d="M204.463 57.1438C204.433 57.1417 204.403 57.1323 204.377 57.1164C204.35 57.1005 204.328 57.0786 204.312 57.0524C204.215 56.8603 204.074 56.6936 203.901 56.5659C203.727 56.4381 203.526 56.3529 203.314 56.317C203.289 56.3186 203.264 56.3147 203.241 56.3058C203.217 56.2969 203.196 56.2831 203.179 56.2654C203.161 56.2477 203.148 56.2264 203.139 56.203C203.131 56.1796 203.127 56.1547 203.129 56.1299C203.131 56.1052 203.139 56.0811 203.151 56.0594C203.163 56.0376 203.18 56.0188 203.2 56.004C203.22 55.9893 203.243 55.979 203.267 55.9739C203.292 55.9688 203.317 55.969 203.341 55.9745C203.611 56.0142 203.868 56.1179 204.089 56.2769C204.311 56.4358 204.491 56.6454 204.614 56.888C204.636 56.9281 204.641 56.9749 204.628 57.0184C204.615 57.062 204.585 57.0988 204.546 57.1209C204.52 57.1348 204.492 57.1426 204.463 57.1438Z" fill="#263238"/>
<path d="M198.78 56.1892C198.745 56.1869 198.712 56.1759 198.683 56.1572C198.665 56.1445 198.649 56.1281 198.637 56.1092C198.625 56.0903 198.617 56.0692 198.613 56.0471C198.609 56.025 198.61 56.0023 198.615 55.9805C198.62 55.9586 198.629 55.9379 198.642 55.9197C198.794 55.6926 198.998 55.5046 199.237 55.3712C199.475 55.2378 199.743 55.1628 200.016 55.1523C200.062 55.1523 200.107 55.1706 200.139 55.2032C200.172 55.2357 200.19 55.2799 200.19 55.3259C200.19 55.3719 200.172 55.4161 200.139 55.4486C200.107 55.4812 200.062 55.4995 200.016 55.4995C199.8 55.5059 199.588 55.5655 199.4 55.6731C199.213 55.7807 199.054 55.9329 198.94 56.1161C198.921 56.1402 198.896 56.1593 198.869 56.172C198.841 56.1848 198.81 56.1906 198.78 56.1892Z" fill="#263238"/>
<path d="M203.73 184.526C203.483 184.545 203.236 184.481 203.03 184.343C202.965 184.287 202.915 184.216 202.884 184.137C202.853 184.057 202.842 183.972 202.851 183.887C202.85 183.836 202.864 183.787 202.891 183.744C202.918 183.701 202.956 183.666 203.002 183.645C203.401 183.435 204.573 184.156 204.706 184.238C204.72 184.248 204.732 184.261 204.739 184.276C204.746 184.291 204.749 184.308 204.747 184.325C204.743 184.341 204.735 184.356 204.724 184.368C204.713 184.38 204.699 184.389 204.683 184.394C204.371 184.472 204.052 184.517 203.73 184.526ZM203.19 183.795C203.152 183.794 203.114 183.802 203.08 183.818C203.062 183.828 203.047 183.842 203.038 183.86C203.028 183.878 203.024 183.898 203.025 183.919C203.017 183.976 203.023 184.034 203.043 184.088C203.063 184.143 203.096 184.191 203.14 184.229C203.341 184.398 203.813 184.421 204.431 184.298C204.054 184.052 203.632 183.881 203.19 183.795Z" fill="#4E4DFF"/>
<path d="M204.674 184.398C204.661 184.403 204.646 184.403 204.633 184.398C204.257 184.197 203.529 183.403 203.607 182.996C203.62 182.933 203.655 182.877 203.705 182.836C203.755 182.795 203.817 182.773 203.882 182.772C203.947 182.765 204.013 182.772 204.076 182.79C204.139 182.809 204.197 182.84 204.248 182.882C204.669 183.229 204.756 184.252 204.761 184.316C204.762 184.332 204.758 184.347 204.751 184.361C204.744 184.374 204.733 184.386 204.72 184.394C204.705 184.4 204.689 184.401 204.674 184.398ZM203.941 182.932H203.9C203.79 182.932 203.781 183.001 203.776 183.019C203.731 183.261 204.193 183.859 204.569 184.143C204.542 183.729 204.392 183.333 204.138 183.005C204.08 182.955 204.004 182.929 203.927 182.932H203.941Z" fill="#4E4DFF"/>
<path d="M173.755 179.584C173.159 179.52 172.124 179.346 171.849 178.89C171.807 178.822 171.783 178.744 171.778 178.665C171.773 178.585 171.788 178.505 171.822 178.433C171.838 178.389 171.865 178.35 171.9 178.32C171.935 178.29 171.978 178.269 172.023 178.259C172.522 178.154 173.69 179.296 173.823 179.429C173.833 179.443 173.839 179.459 173.839 179.477C173.839 179.494 173.833 179.511 173.823 179.524C173.819 179.54 173.81 179.554 173.798 179.564C173.786 179.575 173.771 179.582 173.755 179.584ZM172.083 178.433H172.051C172.033 178.436 172.016 178.444 172.002 178.456C171.989 178.468 171.978 178.484 171.973 178.501C171.948 178.547 171.935 178.598 171.935 178.65C171.935 178.702 171.948 178.753 171.973 178.798C172.129 179.054 172.687 179.255 173.493 179.378C173.04 178.949 172.376 178.424 172.083 178.433Z" fill="#4E4DFF"/>
<path d="M173.754 179.584C173.735 179.59 173.714 179.59 173.695 179.584C173.338 179.269 172.742 178.259 172.93 177.89C172.976 177.803 173.077 177.707 173.306 177.757C173.391 177.772 173.471 177.806 173.542 177.854C173.613 177.903 173.673 177.967 173.718 178.04C174.048 178.538 173.846 179.497 173.837 179.538C173.835 179.553 173.829 179.567 173.819 179.578C173.809 179.59 173.796 179.598 173.782 179.602L173.754 179.584ZM173.182 177.89C173.109 177.89 173.09 177.931 173.086 177.944C172.971 178.164 173.351 178.931 173.695 179.315C173.782 178.909 173.74 178.486 173.576 178.104C173.542 178.051 173.498 178.005 173.446 177.97C173.394 177.935 173.335 177.91 173.274 177.899L173.182 177.89Z" fill="#4E4DFF"/>
<path d="M215.51 77.1455C215.442 77.7758 215.373 78.3194 215.277 78.8995C215.181 79.4796 215.089 80.0368 214.984 80.6032C214.787 81.736 214.526 82.8551 214.242 83.9787C213.665 86.255 212.899 88.4795 211.952 90.6292L211.572 91.4468L211.155 92.2598L211.049 92.4654L210.999 92.5659L210.917 92.712C210.753 93.0048 210.557 93.2776 210.33 93.5251C209.781 94.1205 209.05 94.5187 208.251 94.6579C207.639 94.7561 207.013 94.7155 206.419 94.5391C206 94.4141 205.594 94.2457 205.21 94.0367C204.601 93.6979 204.03 93.2952 203.506 92.8354C203.037 92.4329 202.592 92.0027 202.173 91.5473C201.757 91.0905 201.372 90.6612 201.005 90.1998C200.27 89.2922 199.599 88.3354 198.995 87.3359L201.102 85.6048C202.668 86.9738 204.33 88.2301 206.076 89.3639C206.43 89.5782 206.804 89.7587 207.193 89.9029C207.302 89.9492 207.418 89.974 207.537 89.976C207.592 89.976 207.537 89.9212 207.335 89.9395C207.084 89.9751 206.85 90.0886 206.666 90.2638C206.598 90.3323 206.566 90.378 206.547 90.3917V90.3506L206.579 90.2638L206.653 90.0902L206.937 89.4005L207.198 88.6925C207.89 86.734 208.451 84.732 208.879 82.6998C209.112 81.6675 209.337 80.6306 209.515 79.5892C209.694 78.5478 209.877 77.4698 210.028 76.5015L215.51 77.1455Z" fill="#FF8B7B"/>
<path d="M216.22 74.9941C218.194 77.8443 215.112 87.5917 215.112 87.5917L206.41 85.5226C206.84 82.508 207.545 79.5389 208.517 76.6522C210.17 72.0526 213.834 71.541 216.22 74.9941Z" fill="#4E4DFF"/>
<path d="M201.367 85.8424L199.228 82.8506L196.911 86.861C196.911 86.861 199.302 89.0123 200.575 87.8796L201.367 85.8424Z" fill="#FF8B7B"/>
<path d="M196.325 81.9595L194.566 85.3669L196.915 86.8514L199.228 82.841L196.325 81.9595Z" fill="#FF8B7B"/>
<path d="M186.949 83.6362L189.207 80.7266L191.355 84.8374C191.355 84.8374 188.882 86.8837 187.646 85.7007L186.949 83.6362Z" fill="#FF8B7B"/>
<path d="M192.148 79.9683L193.764 83.4442L191.355 84.8328L189.207 80.7265L192.148 79.9683Z" fill="#FF8B7B"/>
<path d="M108.403 58.185C107.615 56.7005 108.1 54.1792 112.337 54.1426C116.573 54.1061 121.359 54.3025 120.627 50.4565C124.291 51.064 126.81 54.3345 125.042 56.4858C122.207 59.9253 124.194 62.3598 122.198 63.6844C119.417 65.5389 118.534 74.6468 112.438 72.4041C113.005 69.0332 103.479 61.2545 108.403 58.185Z" fill="#263238"/>
<path d="M128.106 81.0234C128.206 82.1151 128.339 83.3073 128.504 84.4446C128.669 85.582 128.834 86.7284 129.063 87.8795C129.48 90.1335 130.065 92.3534 130.812 94.5208L131.11 95.3065L131.248 95.6627C131.248 95.6856 131.248 95.6627 131.215 95.6627C131.124 95.577 131.006 95.524 130.881 95.512C130.817 95.512 130.909 95.544 131.051 95.512C131.475 95.4004 131.881 95.2281 132.255 95.0004C132.731 94.7377 133.19 94.4448 133.629 94.1234C134.568 93.4534 135.471 92.7353 136.336 91.9721C137.22 91.2093 138.108 90.4054 138.956 89.6106L140.476 90.8896C139.047 92.9357 137.404 94.825 135.576 96.526C135.084 96.9711 134.567 97.3875 134.028 97.773C133.405 98.2227 132.718 98.5768 131.989 98.8236C131.47 98.992 130.92 99.0481 130.377 98.988C130.018 98.9456 129.671 98.8372 129.351 98.6683C129.027 98.4967 128.737 98.2676 128.495 97.9922C128.289 97.7597 128.117 97.4999 127.982 97.2203C127.956 97.1761 127.933 97.1304 127.913 97.0833L127.863 96.9737L127.762 96.7544L127.368 95.8774C126.411 93.5511 125.672 91.1412 125.161 88.6788C124.9 87.4638 124.666 86.2488 124.497 85.0247C124.327 83.8006 124.176 82.5901 124.098 81.2884L128.106 81.0234Z" fill="#FFC3BD"/>
<path d="M126.585 76.4831C127.959 76.8394 128.756 85.9884 128.756 85.9884L125.065 88.2037C125.065 88.2037 122.834 81.4436 123.173 78.5249C123.42 76.4009 125.541 76.2182 126.585 76.4831Z" fill="#FFC3BD"/>
<path d="M138.91 89.3362L141.03 85.9927L142.235 89.7884C142.235 89.7884 140.495 91.6154 138.919 91.1587L138.91 89.3362Z" fill="#FFC3BD"/>
<path d="M144.145 84.8828L144.978 88.1213L142.235 89.7885L141.03 85.9928L144.145 84.8828Z" fill="#FFC3BD"/>
<path d="M118.698 184.033H122.628L124.295 169.64H118.904L118.698 184.033Z" fill="#FFC3BD"/>
<path d="M94.0212 178.743L97.8272 179.725L103.671 166.516L98.4043 165.031L94.0212 178.743Z" fill="#FFC3BD"/>
<path d="M98.4181 179.095L94.3556 177.373C94.2863 177.341 94.2076 177.336 94.1348 177.359C94.0619 177.382 94.0002 177.431 93.9617 177.496L92.1297 180.506C92.0868 180.584 92.0606 180.669 92.0529 180.757C92.0452 180.845 92.0562 180.934 92.0852 181.018C92.1141 181.101 92.1603 181.178 92.2209 181.242C92.2814 181.307 92.3549 181.358 92.4366 181.393C93.8655 181.968 94.5846 182.174 96.3708 182.932C97.47 183.389 99.0272 184.193 100.543 184.837C102.059 185.481 102.783 184.014 102.206 183.612C99.6318 181.785 99.5402 180.776 98.9264 179.57C98.8177 179.357 98.6379 179.189 98.4181 179.095Z" fill="#263238"/>
<path d="M122.761 183.576H118.346C118.27 183.576 118.196 183.603 118.139 183.652C118.081 183.702 118.044 183.771 118.034 183.846L117.53 187.331C117.521 187.419 117.531 187.508 117.559 187.592C117.586 187.676 117.632 187.753 117.691 187.818C117.751 187.884 117.824 187.936 117.905 187.972C117.986 188.007 118.074 188.026 118.162 188.025C119.701 187.998 120.452 187.911 122.385 187.911C123.576 187.911 126.049 188.034 127.698 188.034C129.347 188.034 129.434 186.408 128.747 186.257C125.669 185.6 124.455 184.686 123.42 183.818C123.235 183.663 123.002 183.578 122.761 183.576Z" fill="#263238"/>
<path d="M126.814 76.4786C126.814 76.4786 128.683 77.1363 124.936 100.13H108.993C109.264 93.6529 109.268 89.6608 106.167 76.3781C108.4 75.9099 110.664 75.6046 112.941 75.4646C115.353 75.2931 117.775 75.2931 120.187 75.4646C123.301 75.7569 126.814 76.4786 126.814 76.4786Z" fill="#263238"/>
<path d="M113.66 67.3203C114.118 69.6452 114.576 73.9069 112.941 75.4553C114.979 77.6128 117.353 79.4281 119.971 80.8314C122.234 77.1773 120.187 75.4553 120.187 75.4553C117.59 74.8387 117.654 72.9157 118.107 71.1069L113.66 67.3203Z" fill="#FFC3BD"/>
<path d="M113.844 73.5004C115.217 73.6176 116.598 73.59 117.966 73.4181C117.979 73.4162 117.992 73.4187 118.004 73.4253C118.016 73.4319 118.025 73.4423 118.03 73.4547C118.071 73.5597 118.181 73.8475 118.268 74.0439C118.274 74.0567 118.276 74.0714 118.271 74.0851C118.267 74.0988 118.258 74.1102 118.245 74.117C117.787 74.3499 115.52 74.6468 113.665 74.2997C113.657 74.2982 113.649 74.2949 113.641 74.29C113.634 74.2851 113.629 74.2787 113.624 74.2714C113.62 74.264 113.617 74.2558 113.616 74.2473C113.615 74.2387 113.616 74.2301 113.619 74.222C113.692 73.948 113.77 73.6557 113.798 73.546C113.799 73.5343 113.804 73.5232 113.812 73.5149C113.821 73.5065 113.832 73.5014 113.844 73.5004Z" fill="#4E4DFF"/>
<path opacity="0.2" d="M115.474 68.8823L118.107 71.125C117.995 71.544 117.92 71.972 117.883 72.404C116.889 72.2624 115.524 71.1753 115.419 70.1202C115.365 69.7075 115.384 69.2886 115.474 68.8823Z" fill="black"/>
<path d="M111.201 63.0726C112.117 66.8546 112.419 68.4716 114.705 70.0931C118.14 72.5276 122.596 70.5818 122.834 66.608C123.049 63.0269 121.515 57.4453 117.494 56.5865C116.608 56.3927 115.687 56.4281 114.819 56.6893C113.951 56.9505 113.164 57.4288 112.533 58.0788C111.903 58.7288 111.449 59.5289 111.216 60.4029C110.983 61.277 110.978 62.196 111.201 63.0726Z" fill="#FFC3BD"/>
<path d="M124.955 100.13C124.955 100.13 128.051 130.317 127.794 142.266C127.528 154.7 125.046 170.07 125.046 170.07H118.194C118.194 170.07 118.488 155.426 118.016 143.216C117.507 129.906 113.266 100.13 113.266 100.13H124.955Z" fill="#4E4DFF"/>
<path d="M117.608 170.75H125.335L125.898 168.767L117.246 168.525L117.608 170.75Z" fill="#263238"/>
<path opacity="0.2" d="M118.071 107.643C121.987 115.504 118.854 129.851 117.471 135.186C116.761 127.17 115.561 117.372 114.627 110.178C115.222 106.109 116.28 104.017 118.071 107.643Z" fill="black"/>
<path d="M120.736 100.13C120.736 100.13 117.123 131.514 114.393 141.59C111.15 153.549 104.528 166.758 104.528 166.758L97.6577 164.826C97.6577 164.826 101.509 148.702 103.987 142.399C109.277 128.952 104.748 108.909 108.975 100.13H120.736Z" fill="#4E4DFF"/>
<path d="M97.2502 165.867L104.372 167.836L105.655 166.014L97.754 163.387L97.2502 165.867Z" fill="#263238"/>
<path d="M117.604 63.1499C117.659 63.4605 117.869 63.6843 118.062 63.6477C118.254 63.6112 118.387 63.328 118.332 63.0174C118.277 62.7068 118.066 62.483 117.874 62.5195C117.681 62.5561 117.549 62.8393 117.604 63.1499Z" fill="#263238"/>
<path d="M121.13 62.5242C121.19 62.8348 121.396 63.0586 121.588 63.0221C121.781 62.9855 121.913 62.7069 121.858 62.3963C121.803 62.0857 121.593 61.8619 121.4 61.8984C121.208 61.935 121.075 62.2136 121.13 62.5242Z" fill="#263238"/>
<path d="M121.318 61.9306L122.033 61.5835C122.033 61.5835 121.744 62.2321 121.318 61.9306Z" fill="#263238"/>
<path d="M120.132 63.2095C120.536 63.8701 121.029 64.4725 121.597 65C121.458 65.1405 121.289 65.2492 121.103 65.3186C120.918 65.388 120.719 65.4164 120.521 65.4019L120.132 63.2095Z" fill="#ED847E"/>
<path d="M118.872 66.8635C119.051 66.8632 119.228 66.8479 119.404 66.8178C119.416 66.8156 119.427 66.8111 119.438 66.8043C119.448 66.7976 119.457 66.7888 119.464 66.7786C119.471 66.7683 119.475 66.7568 119.478 66.7447C119.48 66.7326 119.48 66.7202 119.477 66.7082C119.475 66.6963 119.471 66.6848 119.465 66.6745C119.459 66.6643 119.45 66.6554 119.44 66.6485C119.431 66.6417 119.419 66.6369 119.407 66.6346C119.396 66.6323 119.383 66.6325 119.372 66.6351C118.985 66.7124 118.585 66.6976 118.204 66.5921C117.824 66.4865 117.474 66.2932 117.182 66.0276C117.174 66.0188 117.164 66.0117 117.153 66.0068C117.142 66.002 117.13 65.9995 117.118 65.9995C117.106 65.9995 117.094 66.002 117.083 66.0068C117.072 66.0117 117.062 66.0188 117.054 66.0276C117.037 66.0455 117.028 66.0692 117.028 66.0939C117.028 66.1185 117.037 66.1422 117.054 66.1601C117.546 66.62 118.198 66.8721 118.872 66.8635Z" fill="#263238"/>
<path d="M109.928 57.6504C112.181 58.7558 114.43 58.2762 114.544 61.067C114.659 63.8578 110.807 68.3752 109.928 65.1779C109.048 61.9805 109.928 57.6504 109.928 57.6504Z" fill="#263238"/>
<path d="M110.601 59.0983C113.509 60.2722 121.52 60.5782 121.346 56.9972C121.172 53.4162 114.247 55.0011 112.263 55.7685C110.28 56.5359 110.601 59.0983 110.601 59.0983Z" fill="#263238"/>
<path d="M111.041 65.9228C111.184 66.2665 111.395 66.5786 111.66 66.8412C111.924 67.1038 112.239 67.3116 112.584 67.453C113.5 67.8275 114.082 67.0236 113.917 66.0827C113.766 65.2468 113.106 64.0409 112.131 64.0683C111.916 64.0763 111.707 64.138 111.522 64.248C111.338 64.3579 111.184 64.5125 111.076 64.6974C110.967 64.8822 110.907 65.0914 110.901 65.3056C110.895 65.5198 110.943 65.7321 111.041 65.9228Z" fill="#FFC3BD"/>
<path d="M116.239 61.0673C116.264 61.0679 116.289 61.0628 116.312 61.0525C116.335 61.0423 116.355 61.027 116.372 61.0079C116.529 60.8355 116.724 60.7019 116.942 60.6179C117.16 60.5338 117.394 60.5016 117.627 60.5237C117.675 60.532 117.725 60.5214 117.766 60.4943C117.807 60.4671 117.836 60.4253 117.847 60.3776C117.855 60.3286 117.843 60.2785 117.815 60.2376C117.787 60.1967 117.744 60.1683 117.695 60.1583C117.402 60.1237 117.104 60.1595 116.826 60.2628C116.549 60.366 116.301 60.5338 116.102 60.7521C116.067 60.7878 116.048 60.8353 116.048 60.8846C116.048 60.9339 116.067 60.9814 116.102 61.017C116.139 61.0508 116.188 61.0688 116.239 61.0673Z" fill="#263238"/>
<path d="M122.014 60.5875C122.038 60.5883 122.062 60.5842 122.084 60.5756C122.106 60.5669 122.126 60.5539 122.142 60.5372C122.16 60.5202 122.174 60.5 122.183 60.4776C122.192 60.4553 122.197 60.4313 122.197 60.4071C122.197 60.3828 122.192 60.3589 122.183 60.3365C122.174 60.3142 122.16 60.2939 122.142 60.2769C121.944 60.0576 121.696 59.8894 121.418 59.7868C121.141 59.6842 120.842 59.6501 120.549 59.6877C120.525 59.692 120.502 59.7011 120.482 59.7143C120.462 59.7275 120.444 59.7446 120.43 59.7645C120.417 59.7845 120.407 59.8069 120.402 59.8306C120.398 59.8543 120.397 59.8786 120.402 59.9023C120.411 59.9506 120.439 59.9934 120.479 60.0216C120.519 60.0498 120.569 60.0611 120.617 60.0531C120.848 60.0257 121.081 60.0528 121.299 60.1322C121.517 60.2115 121.714 60.3409 121.872 60.5098C121.889 60.5323 121.91 60.5509 121.935 60.5643C121.959 60.5777 121.986 60.5856 122.014 60.5875Z" fill="#263238"/>
<path d="M108.16 82.0692C107.367 84.1337 106.607 86.3034 105.934 88.4365C105.262 90.5408 104.74 92.6899 104.372 94.8677C104.322 95.1326 104.299 95.393 104.271 95.6533L104.23 96.0416V96.206C104.276 96.5093 104.387 96.7991 104.555 97.0556C105.098 97.9363 105.728 98.7597 106.438 99.513C107.908 101.153 109.602 102.71 111.274 104.254L110.115 105.871C108.038 104.675 106.077 103.288 104.258 101.728C103.272 100.899 102.389 99.954 101.629 98.9146C101.116 98.2252 100.777 97.4232 100.639 96.576C100.62 96.4245 100.611 96.2719 100.612 96.1192C100.612 96.0233 100.612 96.0188 100.612 95.9685V95.8498V95.393C100.612 95.0733 100.639 94.7535 100.676 94.4475C100.937 92.0354 101.416 89.652 102.11 87.3265C102.754 85.0303 103.531 82.7731 104.436 80.5664L108.16 82.0692Z" fill="#FFC3BD"/>
<path d="M106.204 76.3643C104.638 77.0037 102.677 85.5498 102.677 85.5498L106.007 88.2904C106.007 88.2904 109.144 81.8957 109.282 78.9815C109.364 76.7571 107.578 75.8024 106.204 76.3643Z" fill="#FFC3BD"/>
<path d="M100.223 180.328C100.294 180.291 100.357 180.239 100.406 180.175C100.455 180.111 100.489 180.037 100.507 179.958C100.524 179.905 100.527 179.848 100.515 179.794C100.503 179.739 100.476 179.689 100.438 179.648C100.099 179.278 98.6975 179.52 98.5372 179.547C98.5197 179.552 98.5037 179.562 98.4909 179.574C98.4781 179.587 98.4688 179.603 98.4639 179.62C98.4597 179.638 98.4609 179.657 98.4674 179.674C98.474 179.691 98.4855 179.706 98.5005 179.716C98.9219 180.022 99.7005 180.516 100.168 180.351C100.187 180.346 100.206 180.339 100.223 180.328ZM98.7937 179.684C99.357 179.607 100.122 179.57 100.3 179.762C100.314 179.783 100.321 179.808 100.321 179.833C100.321 179.858 100.314 179.882 100.3 179.904C100.29 179.963 100.265 180.018 100.228 180.064C100.19 180.111 100.141 180.147 100.085 180.169C99.8516 180.264 99.3707 180.086 98.7937 179.684Z" fill="#4E4DFF"/>
<path d="M99.192 179.52C99.5996 179.324 100.016 179.022 100.076 178.743C100.091 178.671 100.08 178.596 100.046 178.53C100.012 178.464 99.956 178.412 99.8881 178.383C99.8264 178.347 99.7576 178.325 99.6865 178.317C99.6154 178.31 99.5436 178.319 99.4759 178.342C98.9401 178.524 98.4866 179.561 98.4683 179.602C98.4603 179.616 98.4561 179.632 98.4561 179.648C98.4561 179.664 98.4603 179.68 98.4683 179.694C98.477 179.707 98.4894 179.718 98.5041 179.724C98.5187 179.731 98.535 179.733 98.5508 179.73C98.7741 179.694 98.9905 179.623 99.192 179.52ZM99.4805 178.542L99.5355 178.52C99.578 178.504 99.6234 178.498 99.6686 178.502C99.7137 178.506 99.7574 178.52 99.7965 178.542C99.8973 178.602 99.9019 178.661 99.8927 178.702C99.8377 178.972 99.1782 179.383 98.7156 179.511C98.8811 179.127 99.1448 178.793 99.4805 178.542Z" fill="#4E4DFF"/>
<path d="M124.235 184.252C124.573 184.283 124.911 184.198 125.193 184.01C125.256 183.953 125.304 183.882 125.333 183.802C125.362 183.723 125.37 183.637 125.358 183.553C125.355 183.502 125.339 183.451 125.312 183.408C125.285 183.364 125.247 183.327 125.202 183.302C124.744 183.042 123.155 183.841 122.976 183.932C122.958 183.941 122.944 183.955 122.935 183.972C122.926 183.989 122.923 184.009 122.926 184.028C122.929 184.047 122.937 184.064 122.95 184.078C122.963 184.092 122.98 184.102 122.999 184.106C123.406 184.191 123.82 184.24 124.235 184.252ZM124.936 183.443C124.996 183.44 125.056 183.451 125.11 183.475C125.129 183.485 125.145 183.499 125.157 183.517C125.168 183.534 125.174 183.555 125.174 183.576C125.183 183.631 125.177 183.687 125.158 183.739C125.139 183.791 125.107 183.837 125.064 183.873C124.826 184.088 124.181 184.124 123.31 183.982C123.818 183.715 124.368 183.536 124.936 183.453V183.443Z" fill="#4E4DFF"/>
<path d="M123.017 184.124H123.058C123.516 183.914 124.432 183.069 124.377 182.626C124.377 182.521 124.286 182.388 124.029 182.361C123.938 182.352 123.845 182.362 123.757 182.39C123.669 182.417 123.587 182.462 123.516 182.521C123.022 182.932 122.93 183.987 122.926 184.033C122.925 184.049 122.928 184.065 122.936 184.079C122.943 184.093 122.954 184.106 122.967 184.115C122.982 184.124 123 184.128 123.017 184.124ZM123.933 182.535H123.988C124.158 182.535 124.171 182.617 124.171 182.64C124.217 182.909 123.59 183.553 123.109 183.859C123.147 183.415 123.323 182.993 123.613 182.653C123.659 182.611 123.713 182.579 123.772 182.558C123.831 182.538 123.894 182.53 123.956 182.535H123.933Z" fill="#4E4DFF"/>
<path d="M108.755 99.1981L108.348 100.623C108.293 100.733 108.421 100.842 108.609 100.842H125.032C125.174 100.842 125.294 100.774 125.303 100.683L125.449 99.2575C125.449 99.1616 125.335 99.0794 125.174 99.0794H109.016C108.966 99.0747 108.916 99.0832 108.87 99.1041C108.824 99.1249 108.785 99.1573 108.755 99.1981Z" fill="#4E4DFF"/>
<path opacity="0.8" d="M108.755 99.1981L108.348 100.623C108.293 100.733 108.421 100.842 108.609 100.842H125.032C125.174 100.842 125.294 100.774 125.303 100.683L125.449 99.2575C125.449 99.1616 125.335 99.0794 125.174 99.0794H109.016C108.966 99.0747 108.916 99.0832 108.87 99.1041C108.824 99.1249 108.785 99.1573 108.755 99.1981Z" fill="white"/>
<path d="M110.926 100.997H110.491C110.409 100.997 110.34 100.956 110.349 100.902L110.55 99.0471C110.55 98.9969 110.633 98.9512 110.715 98.9512H111.173C111.26 98.9512 111.325 98.9969 111.32 99.0471L111.118 100.902C111.086 100.956 111.013 100.997 110.926 100.997Z" fill="#4E4DFF"/>
<path d="M123.814 100.997H123.384C123.297 100.997 123.232 100.956 123.237 100.902L123.439 99.0471C123.439 98.9969 123.521 98.9512 123.608 98.9512H124.039C124.126 98.9512 124.19 98.9969 124.185 99.0471L123.984 100.902C123.979 100.956 123.901 100.997 123.814 100.997Z" fill="#4E4DFF"/>
<path d="M117.37 100.997H116.94C116.853 100.997 116.784 100.956 116.793 100.902L116.995 99.0471C116.995 98.9969 117.077 98.9512 117.164 98.9512H117.595C117.682 98.9512 117.746 98.9969 117.741 99.0471L117.54 100.902C117.53 100.956 117.457 100.997 117.37 100.997Z" fill="#4E4DFF"/>
<path d="M110.812 103.912L115.044 104.272L112.218 107.086C112.218 107.086 109.795 106.387 109.47 104.802L110.812 103.912Z" fill="#FFC3BD"/>
<path d="M139.318 84.2205L136.57 97.3296C136.534 97.4988 136.532 97.6733 136.564 97.8431C136.596 98.0129 136.662 98.1748 136.757 98.3195C136.851 98.4641 136.974 98.5887 137.117 98.6861C137.26 98.7835 137.421 98.8518 137.591 98.8872L162.616 104.122C162.96 104.191 163.317 104.122 163.61 103.931C163.903 103.739 164.109 103.44 164.182 103.099L166.93 89.9894C167 89.6474 166.932 89.292 166.74 88.9997C166.549 88.7075 166.251 88.5019 165.909 88.4273L140.884 83.1973C140.557 83.1322 140.217 83.1908 139.931 83.3617C139.775 83.4547 139.64 83.579 139.534 83.7269C139.428 83.8747 139.355 84.0428 139.318 84.2205Z" fill="#4E4DFF"/>
<path opacity="0.5" d="M139.318 84.2205L136.57 97.3296C136.534 97.4988 136.532 97.6733 136.564 97.8431C136.596 98.0129 136.662 98.1748 136.757 98.3195C136.851 98.4641 136.974 98.5887 137.117 98.6861C137.26 98.7835 137.421 98.8518 137.591 98.8872L162.616 104.122C162.96 104.191 163.317 104.122 163.61 103.931C163.903 103.739 164.109 103.44 164.182 103.099L166.93 89.9894C167 89.6474 166.932 89.292 166.74 88.9997C166.549 88.7075 166.251 88.5019 165.909 88.4273L140.884 83.1973C140.557 83.1322 140.217 83.1908 139.931 83.3617C139.775 83.4547 139.64 83.579 139.534 83.7269C139.428 83.8747 139.355 84.0428 139.318 84.2205Z" fill="black"/>
<path d="M166.715 88.9755L162.762 90.9806L154.921 94.9499C153.83 95.5062 152.58 95.6736 151.379 95.4244C150.179 95.1751 149.1 94.5243 148.322 93.5796L142.894 86.9611L139.927 83.3572C140.215 83.188 140.555 83.1296 140.884 83.1928L143.068 83.6496L162.927 87.8016L165.904 88.4228C166.235 88.4978 166.525 88.6954 166.715 88.9755Z" fill="#4E4DFF"/>
<path d="M163.711 73.0252L162.927 87.8198L162.763 90.9806L154.922 94.9499C153.83 95.5061 152.58 95.6735 151.38 95.4243C150.179 95.1751 149.1 94.5242 148.322 93.5796L142.895 86.9611L143.069 83.6495L143.687 71.9563C143.706 71.6393 143.849 71.3423 144.085 71.1296C144.322 70.9168 144.633 70.8053 144.951 70.819L162.57 71.7325C162.731 71.7412 162.888 71.7817 163.033 71.8517C163.177 71.9217 163.306 72.0197 163.413 72.1401C163.519 72.2604 163.6 72.4007 163.651 72.5527C163.702 72.7047 163.722 72.8653 163.711 73.0252Z" fill="#4E4DFF"/>
<path opacity="0.9" d="M163.711 73.0252L162.927 87.8198L162.763 90.9806L154.922 94.9499C153.83 95.5061 152.58 95.6735 151.38 95.4243C150.179 95.1751 149.1 94.5242 148.322 93.5796L142.895 86.9611L143.069 83.6495L143.687 71.9563C143.706 71.6393 143.849 71.3423 144.085 71.1296C144.322 70.9168 144.633 70.8053 144.951 70.819L162.57 71.7325C162.731 71.7412 162.888 71.7817 163.033 71.8517C163.177 71.9217 163.306 72.0197 163.413 72.1401C163.519 72.2604 163.6 72.4007 163.651 72.5527C163.702 72.7047 163.722 72.8653 163.711 73.0252Z" fill="white"/>
<path opacity="0.1" d="M149.256 91.7526L142.968 85.5908L142.895 86.9611L148.34 93.5705C149.119 94.5151 150.198 95.166 151.398 95.4152C152.598 95.6645 153.848 95.4971 154.94 94.9408L162.781 90.9715L162.859 89.4916L154.954 92.8168C154.005 93.2225 152.957 93.3379 151.943 93.1484C150.928 92.9589 149.993 92.4731 149.256 91.7526Z" fill="black"/>
<path d="M145.592 76.419L145.784 72.7969L146.517 72.838L146.325 76.4556L145.592 76.419Z" fill="#4E4DFF"/>
<path d="M147.03 76.4967L147.223 72.8745L147.937 72.9111L149.311 75.4096L149.435 72.9887L150.117 73.0252L149.925 76.6474L149.192 76.6108L147.836 74.1717L147.713 76.5332L147.03 76.4967Z" fill="#4E4DFF"/>
<path d="M151.615 76.739L150.506 73.0483L151.303 73.0895L152.082 75.83L153.112 73.1991L153.891 73.2402L152.398 76.7938L151.615 76.739Z" fill="#4E4DFF"/>
<path d="M154.051 76.8668L154.244 73.2446L154.976 73.2812L154.784 76.9033L154.051 76.8668Z" fill="#4E4DFF"/>
<path d="M156.3 76.9852L156.46 73.9752L155.384 73.9158L155.416 73.3037L158.301 73.4544L158.269 74.0665L157.193 74.0117L157.033 77.0218L156.3 76.9852Z" fill="#4E4DFF"/>
<path d="M158.581 77.1041L158.773 73.4819L161.466 73.6235L161.434 74.2356L159.474 74.1305L159.433 74.9344L161.265 75.0304L161.233 75.6424L159.401 75.5465L159.35 76.5331L161.379 76.6382L161.347 77.2502L158.581 77.1041Z" fill="#4E4DFF"/>
<path d="M117.462 106.515L114.966 108.744L111.613 106.862L115.043 104.272L117.462 106.515Z" fill="#FFC3BD"/>
<path d="M117.787 62.5517L118.497 62.2046C118.497 62.2046 118.217 62.8578 117.787 62.5517Z" fill="#263238"/>
</g>
<defs>
<filter id="filter0_dddd_357_1519" x="0" y="3" width="315" height="341" filterUnits="userSpaceOnUse" color-interpolation-filters="sRGB">
<feFlood flood-opacity="0" result="BackgroundImageFix"/>
<feColorMatrix in="SourceAlpha" type="matrix" values="0 0 0 0 0 0 0 0 0 0 0 0 0 0 0 0 0 0 127 0" result="hardAlpha"/>
<feOffset dy="7"/>
<feGaussianBlur stdDeviation="7.5"/>
<feColorMatrix type="matrix" values="0 0 0 0 0 0 0 0 0 0 0 0 0 0 0 0 0 0 0.1 0"/>
<feBlend mode="normal" in2="BackgroundImageFix" result="effect1_dropShadow_357_1519"/>
<feColorMatrix in="SourceAlpha" type="matrix" values="0 0 0 0 0 0 0 0 0 0 0 0 0 0 0 0 0 0 127 0" result="hardAlpha"/>
<feOffset dy="27"/>
<feGaussianBlur stdDeviation="13.5"/>
<feColorMatrix type="matrix" values="0 0 0 0 0 0 0 0 0 0 0 0 0 0 0 0 0 0 0.09 0"/>
<feBlend mode="normal" in2="effect1_dropShadow_357_1519" result="effect2_dropShadow_357_1519"/>
<feColorMatrix in="SourceAlpha" type="matrix" values="0 0 0 0 0 0 0 0 0 0 0 0 0 0 0 0 0 0 127 0" result="hardAlpha"/>
<feOffset dy="61"/>
<feGaussianBlur stdDeviation="18"/>
<feColorMatrix type="matrix" values="0 0 0 0 0 0 0 0 0 0 0 0 0 0 0 0 0 0 0.05 0"/>
<feBlend mode="normal" in2="effect2_dropShadow_357_1519" result="effect3_dropShadow_357_1519"/>
<feColorMatrix in="SourceAlpha" type="matrix" values="0 0 0 0 0 0 0 0 0 0 0 0 0 0 0 0 0 0 127 0" result="hardAlpha"/>
<feOffset dy="108"/>
<feGaussianBlur stdDeviation="21.5"/>
<feColorMatrix type="matrix" values="0 0 0 0 0 0 0 0 0 0 0 0 0 0 0 0 0 0 0.01 0"/>
<feBlend mode="normal" in2="effect3_dropShadow_357_1519" result="effect4_dropShadow_357_1519"/>
<feBlend mode="normal" in="SourceGraphic" in2="effect4_dropShadow_357_1519" result="shape"/>
</filter>
<clipPath id="clip0_357_1519">
<rect width="229" height="182" fill="white" transform="translate(43 11)"/>
</clipPath>
</defs>
</svg>
