<svg width="383" height="404" viewBox="0 0 383 404" fill="none" xmlns="http://www.w3.org/2000/svg">
<g clip-path="url(#clip0_357_764)" filter="url(#filter0_dddd_357_764)">
<path d="M340 224.584H22V224.743H340V224.584Z" fill="#EBEBEB"/>
<path d="M305.185 231.854H272.813V232.013H305.185V231.854Z" fill="#EBEBEB"/>
<path d="M85.3901 229.975H55.3645V230.134H85.3901V229.975Z" fill="#EBEBEB"/>
<path d="M275.128 228.908H262.923V229.067H275.128V228.908Z" fill="#EBEBEB"/>
<path d="M232.656 233.118H223.701V233.276H232.656V233.118Z" fill="#EBEBEB"/>
<path d="M218.034 233.118H195.494V233.276H218.034V233.118Z" fill="#EBEBEB"/>
<path d="M182.406 230.438H146.16V230.597H182.406V230.438Z" fill="#EBEBEB"/>
<path d="M172.732 196.265H49.9267C48.9647 196.264 48.0426 195.881 47.3629 195.201C46.6832 194.521 46.3015 193.6 46.3015 192.64V20.2945C46.3099 19.3396 46.6953 18.4265 47.3741 17.7536C48.0529 17.0807 48.9702 16.7023 49.9267 16.7007H172.732C173.695 16.7007 174.619 17.0827 175.3 17.7626C175.981 18.4425 176.364 19.3647 176.364 20.3263V192.64C176.364 193.601 175.981 194.524 175.3 195.203C174.619 195.883 173.695 196.265 172.732 196.265ZM49.9267 16.8277C49.0068 16.8294 48.1252 17.1954 47.4754 17.8453C46.8255 18.4953 46.4605 19.3762 46.4605 20.2945V192.64C46.4605 193.558 46.8255 194.439 47.4754 195.089C48.1252 195.739 49.0068 196.105 49.9267 196.107H172.732C173.652 196.105 174.535 195.739 175.186 195.089C175.836 194.44 176.203 193.559 176.205 192.64V20.2945C176.203 19.3756 175.836 18.4947 175.186 17.8449C174.535 17.1951 173.652 16.8294 172.732 16.8277H49.9267Z" fill="#EBEBEB"/>
<path d="M310.305 196.265H187.494C186.531 196.264 185.608 195.881 184.928 195.202C184.247 194.522 183.864 193.601 183.862 192.64V20.2945C183.872 19.339 184.259 18.4259 184.939 17.7532C185.619 17.0805 186.536 16.7023 187.494 16.7007H310.305C311.261 16.704 312.176 17.0831 312.854 17.7558C313.531 18.4285 313.916 19.3407 313.924 20.2945V192.64C313.924 193.599 313.543 194.519 312.865 195.199C312.187 195.879 311.266 196.262 310.305 196.265ZM187.494 16.8277C186.573 16.8294 185.691 17.1951 185.04 17.8449C184.389 18.4947 184.023 19.3756 184.021 20.2945V192.64C184.023 193.559 184.389 194.44 185.04 195.089C185.691 195.739 186.573 196.105 187.494 196.107H310.305C311.226 196.105 312.108 195.739 312.759 195.089C313.41 194.44 313.776 193.559 313.778 192.64V20.2945C313.776 19.3756 313.41 18.4947 312.759 17.8449C312.108 17.1951 311.226 16.8294 310.305 16.8277H187.494Z" fill="#EBEBEB"/>
<path d="M67.8811 164.988H154.186L154.186 36.0289H67.8811L67.8811 164.988Z" fill="#E6E6E6"/>
<path d="M65.9668 164.988H152.272L152.272 36.0289H65.9668L65.9668 164.988Z" fill="#F5F5F5"/>
<path d="M148.825 161.127V39.8892L69.4074 39.8892L69.4074 161.127H148.825Z" fill="white"/>
<path d="M70.8574 161.127L70.8574 39.8892H69.4073L69.4073 161.127H70.8574Z" fill="#E6E6E6"/>
<path d="M67.3912 82.8691L150.847 82.8691V77.6879L67.3912 77.6879V82.8691Z" fill="#F5F5F5"/>
<path d="M62.2078 29.6348H157.939C158.079 29.6364 158.213 29.6934 158.312 29.7932C158.411 29.8931 158.466 30.0278 158.466 30.1681C158.466 30.3079 158.411 30.4419 158.312 30.5408C158.213 30.6396 158.079 30.6951 157.939 30.6951H62.2078C62.0678 30.6951 61.9335 30.6396 61.8345 30.5408C61.7355 30.4419 61.6799 30.3079 61.6799 30.1681C61.6799 30.0278 61.7353 29.8931 61.8342 29.7932C61.933 29.6934 62.0672 29.6364 62.2078 29.6348Z" fill="#E6E6E6"/>
<path d="M59.028 30.1683C59.033 30.6908 59.1928 31.2002 59.4872 31.6323C59.7817 32.0644 60.1976 32.3998 60.6827 32.5963C61.1677 32.7928 61.7001 32.8416 62.2129 32.7366C62.7257 32.6316 63.1958 32.3774 63.5642 32.0062C63.9326 31.6349 64.1827 31.1631 64.2829 30.6502C64.3832 30.1372 64.3292 29.6062 64.1278 29.1238C63.9263 28.6415 63.5864 28.2295 63.1508 27.9396C62.7153 27.6498 62.2035 27.4951 61.6801 27.4951C61.3296 27.4951 60.9827 27.5644 60.6592 27.6991C60.3358 27.8337 60.0423 28.031 59.7957 28.2796C59.5491 28.5281 59.3543 28.823 59.2225 29.1472C59.0907 29.4714 59.0246 29.8184 59.028 30.1683Z" fill="#E6E6E6"/>
<path d="M153.467 33.1269C153.657 33.1269 153.839 33.0521 153.973 32.9189C154.108 32.7858 154.184 32.6049 154.186 32.4157V30.8791C154.184 30.6899 154.108 30.5091 153.973 30.3759C153.839 30.2427 153.657 30.168 153.467 30.168C153.279 30.168 153.097 30.2429 152.964 30.3763C152.83 30.5096 152.755 30.6905 152.755 30.8791V32.4157C152.755 32.6043 152.83 32.7852 152.964 32.9186C153.097 33.0519 153.279 33.1269 153.467 33.1269Z" fill="#E6E6E6"/>
<path d="M70.2026 33.1269C70.3921 33.1269 70.5739 33.0521 70.7085 32.9189C70.8431 32.7858 70.9196 32.6049 70.9212 32.4157V30.8791C70.9196 30.6899 70.8431 30.5091 70.7085 30.3759C70.5739 30.2427 70.3921 30.168 70.2026 30.168C70.0136 30.168 69.8325 30.2429 69.6989 30.3763C69.5653 30.5096 69.4902 30.6905 69.4902 30.8791V32.4157C69.4902 32.6043 69.5653 32.7852 69.6989 32.9186C69.8325 33.0519 70.0136 33.1269 70.2026 33.1269Z" fill="#E6E6E6"/>
<path opacity="0.5" d="M62.3732 151.73H150.841L150.841 30.1619L62.3732 30.1619L62.3732 151.73Z" fill="#E0E0E0"/>
<path d="M142.3 30.1683C142.305 30.6911 142.465 31.2008 142.759 31.633C143.054 32.0652 143.47 32.4006 143.956 32.5969C144.441 32.7932 144.974 32.8417 145.487 32.7361C146 32.6306 146.47 32.3758 146.838 32.0039C147.206 31.632 147.456 31.1596 147.555 30.6463C147.655 30.1329 147.6 29.6017 147.398 29.1194C147.195 28.6372 146.854 28.2256 146.418 27.9366C145.981 27.6475 145.469 27.4939 144.945 27.4951C144.595 27.4951 144.248 27.5645 143.925 27.6992C143.602 27.8339 143.309 28.0313 143.063 28.28C142.817 28.5286 142.623 28.8236 142.492 29.1477C142.361 29.4718 142.295 29.8187 142.3 30.1683Z" fill="#E6E6E6"/>
<path d="M140.703 222.114H157.735V184.404H140.703V222.114Z" fill="#F0F0F0"/>
<path d="M70.4505 224.502H154.46V222.115H70.4505V224.502Z" fill="#F0F0F0"/>
<path d="M140.697 184.404H67.1814V222.114H140.697V184.404Z" fill="#F5F5F5"/>
<path d="M134 189.046H73.8784V201.415H134V189.046Z" fill="#F0F0F0"/>
<path d="M134 205.104H73.8784V217.473H134V205.104Z" fill="#F0F0F0"/>
<path d="M96.2784 196.075H111.6C112.014 196.075 112.35 195.739 112.35 195.325V195.129C112.35 194.715 112.014 194.379 111.6 194.379H96.2784C95.8639 194.379 95.5279 194.715 95.5279 195.129V195.325C95.5279 195.739 95.8639 196.075 96.2784 196.075Z" fill="#F5F5F5"/>
<path d="M96.2784 212.133H111.6C112.014 212.133 112.35 211.797 112.35 211.384V211.187C112.35 210.773 112.014 210.437 111.6 210.437H96.2784C95.8639 210.437 95.5279 210.773 95.5279 211.187V211.384C95.5279 211.797 95.8639 212.133 96.2784 212.133Z" fill="#F5F5F5"/>
<path d="M100.177 178.061C100.177 178.061 99.9671 184.411 92.1189 184.411C84.2707 184.411 84.0671 178.061 84.0671 178.061H100.177Z" fill="#F0F0F0"/>
<path d="M118.538 178.061C118.538 178.061 118.335 184.411 110.48 184.411C102.626 184.411 102.428 178.061 102.428 178.061H118.538Z" fill="#F0F0F0"/>
<path d="M100.177 173.852C100.177 173.852 99.9671 180.201 92.1189 180.201C84.2707 180.201 84.0671 173.852 84.0671 173.852H100.177Z" fill="#F0F0F0"/>
<path d="M118.538 173.852C118.538 173.852 118.335 180.201 110.48 180.201C102.626 180.201 102.428 173.852 102.428 173.852H118.538Z" fill="#F0F0F0"/>
<path d="M136.9 178.061C136.9 178.061 136.696 184.411 128.848 184.411C121 184.411 120.79 178.061 120.79 178.061H136.9Z" fill="#F0F0F0"/>
<path d="M136.9 173.852C136.9 173.852 136.696 180.201 128.848 180.201C121 180.201 120.79 173.852 120.79 173.852H136.9Z" fill="#F0F0F0"/>
<path d="M240.759 110.426H292.192V36.4035H240.759V110.426Z" fill="#E6E6E6"/>
<path d="M226.48 110.426L286.385 110.426V36.4035L226.48 36.4035V110.426Z" fill="#F5F5F5"/>
<path d="M278.728 105.67V41.1592H234.138V105.67H278.728Z" fill="white"/>
<path d="M256.843 106.496V40.3335H256.029V106.496H256.843Z" fill="#F5F5F5"/>
<path d="M291.46 220.711H304.314V136.573H291.46V220.711Z" fill="#F0F0F0"/>
<path d="M194.922 224.572H300.924V220.705H194.922V224.572Z" fill="#F0F0F0"/>
<path d="M291.461 136.567H191.532V220.705H291.461V136.567Z" fill="#F5F5F5"/>
<path d="M284.515 166.975H198.477V186.989H284.515V166.975Z" fill="#F0F0F0"/>
<path d="M284.515 193.18H198.477V213.193H284.515V193.18Z" fill="#F0F0F0"/>
<path d="M216.686 168.353H266.313C267.033 168.353 267.617 167.77 267.617 167.051V166.912C267.617 166.193 267.033 165.61 266.313 165.61H216.686C215.966 165.61 215.382 166.193 215.382 166.912V167.051C215.382 167.77 215.966 168.353 216.686 168.353Z" fill="#F5F5F5"/>
<path d="M216.686 194.551H266.313C267.033 194.551 267.617 193.968 267.617 193.249V193.109C267.617 192.391 267.033 191.808 266.313 191.808H216.686C215.966 191.808 215.382 192.391 215.382 193.109V193.249C215.382 193.968 215.966 194.551 216.686 194.551Z" fill="#F5F5F5"/>
<path d="M284.515 140.777H198.477V160.791H284.515V140.777Z" fill="#F0F0F0"/>
<path d="M216.686 142.155H266.313C267.033 142.155 267.617 141.572 267.617 140.853V140.713C267.617 139.995 267.033 139.412 266.313 139.412H216.686C215.966 139.412 215.382 139.995 215.382 140.713V140.853C215.382 141.572 215.966 142.155 216.686 142.155Z" fill="#F5F5F5"/>
<path d="M210.008 79.0024C211.973 79.0024 213.858 78.2231 215.247 76.8358C216.637 75.4486 217.417 73.5671 217.417 71.6052C217.417 69.6433 216.637 67.7618 215.247 66.3746C213.858 64.9874 211.973 64.208 210.008 64.208H209.105V79.0024H210.008Z" fill="#E0E0E0"/>
<path d="M209.105 79.0024C213.197 79.0024 216.514 75.6906 216.514 71.6052C216.514 67.5198 213.197 64.208 209.105 64.208C205.013 64.208 201.696 67.5198 201.696 71.6052C201.696 75.6906 205.013 79.0024 209.105 79.0024Z" fill="#F5F5F5"/>
<path d="M208.348 73.0021C204.396 72.997 200.608 71.4271 197.814 68.6369C195.021 65.8466 193.45 62.0639 193.447 58.1188V49.2294C193.447 48.8589 193.594 48.5036 193.856 48.2417C194.119 47.9797 194.475 47.8325 194.846 47.8325C195.217 47.8325 195.573 47.9797 195.835 48.2417C196.098 48.5036 196.245 48.8589 196.245 49.2294V58.1188C196.255 61.3153 197.531 64.378 199.795 66.6383C202.059 68.8986 205.127 70.1728 208.329 70.1829C208.513 70.1829 208.695 70.219 208.864 70.2892C209.034 70.3594 209.188 70.4623 209.318 70.592C209.448 70.7217 209.551 70.8757 209.622 71.0452C209.692 71.2147 209.728 71.3963 209.728 71.5798C209.728 71.7632 209.692 71.9448 209.622 72.1143C209.551 72.2838 209.448 72.4378 209.318 72.5675C209.188 72.6972 209.034 72.8001 208.864 72.8703C208.695 72.9405 208.513 72.9767 208.329 72.9767L208.348 73.0021Z" fill="#E0E0E0"/>
<path d="M182.272 57.0584H207.432C207.825 57.0578 208.214 56.973 208.571 56.8096C208.929 56.6462 209.247 56.408 209.505 56.1113C209.762 55.8145 209.953 55.4661 210.064 55.0894C210.175 54.7128 210.203 54.3168 210.148 53.9281L207.985 38.9242C207.736 37.2009 206.873 35.625 205.554 34.4856C204.235 33.3462 202.549 32.7196 200.805 32.7207H188.912C187.168 32.7196 185.482 33.3462 184.163 34.4856C182.844 35.625 181.981 37.2009 181.731 38.9242L179.563 53.9027C179.502 54.2929 179.527 54.6916 179.635 55.0714C179.743 55.4511 179.933 55.803 180.19 56.1028C180.448 56.4026 180.767 56.6432 181.126 56.8082C181.486 56.9732 181.876 57.0585 182.272 57.0584Z" fill="#F5F5F5"/>
<path d="M181 253.259C249.105 253.259 304.314 250.041 304.314 246.071C304.314 242.101 249.105 238.883 181 238.883C112.896 238.883 57.686 242.101 57.686 246.071C57.686 250.041 112.896 253.259 181 253.259Z" fill="#F5F5F5"/>
<path d="M208.863 235.887L204.049 234.382L206.262 222.845L211.076 224.356L208.863 235.887Z" fill="#FF8B7B"/>
<path d="M252.588 240.928H247.538L243.608 229.258H248.651L252.588 240.928Z" fill="#FF8B7B"/>
<path d="M246.864 240.344H253.021C253.12 240.343 253.217 240.377 253.295 240.439C253.373 240.502 253.426 240.589 253.447 240.687L254.445 245.163C254.469 245.272 254.468 245.385 254.442 245.494C254.416 245.602 254.366 245.704 254.295 245.79C254.224 245.876 254.134 245.945 254.032 245.992C253.93 246.038 253.819 246.061 253.708 246.058C251.723 246.027 250.279 245.912 247.786 245.912C246.254 245.912 241.63 246.071 239.518 246.071C237.407 246.071 237.127 243.976 237.992 243.792C241.878 242.941 244.81 241.772 246.056 240.655C246.278 240.455 246.566 240.344 246.864 240.344Z" fill="#263238"/>
<path d="M204.258 233.855L209.518 235.499C209.613 235.53 209.695 235.592 209.75 235.675C209.805 235.758 209.831 235.857 209.823 235.956L209.429 240.528C209.42 240.638 209.386 240.745 209.33 240.841C209.274 240.936 209.196 241.018 209.104 241.079C209.011 241.14 208.906 241.18 208.796 241.194C208.686 241.209 208.574 241.198 208.469 241.163C206.561 240.528 203.877 239.569 201.473 238.826C198.687 237.95 196.01 237.163 192.74 236.134C190.763 235.499 190.832 233.353 191.723 233.429C195.749 233.785 199.075 234.852 202.961 233.867C203.383 233.739 203.834 233.735 204.258 233.855Z" fill="#263238"/>
<path d="M233.654 89.7206C232.809 90.908 231.893 92.1779 231.028 93.4287C230.163 94.6796 229.304 95.9685 228.452 97.2385C226.773 99.7783 225.151 102.35 223.714 104.94C223.338 105.575 223.033 106.21 222.683 106.89C222.334 107.569 222.047 108.16 221.768 108.795C221.488 109.43 221.221 110.065 220.979 110.699L220.833 111.08C220.822 111.112 220.807 111.142 220.788 111.169C220.788 111.169 220.788 111.169 220.788 110.89V110.757C220.788 110.693 220.788 110.636 220.788 110.566C220.777 110.461 220.758 110.357 220.731 110.255C220.731 110.172 220.686 110.09 220.661 110.014L220.623 109.893L220.546 109.715C220.49 109.589 220.427 109.466 220.356 109.347C220.249 109.174 220.126 109.013 219.987 108.864C219.617 108.458 219.148 108.154 218.626 107.982C218.379 107.899 218.122 107.848 217.862 107.829C217.744 107.82 217.625 107.82 217.506 107.829H217.252C216.99 107.859 216.734 107.923 216.489 108.02C216.358 108.072 216.231 108.131 216.107 108.198C216.034 108.238 215.964 108.282 215.897 108.331L215.77 108.433L215.687 108.503C215.638 108.541 215.593 108.586 215.554 108.636C215.509 108.712 215.611 108.636 215.694 108.534C216.075 108.122 216.571 107.518 217.017 106.934L218.416 105.106C219.37 103.88 220.324 102.629 221.341 101.423L224.687 103.201C224.223 104.763 223.669 106.255 223.065 107.753C222.747 108.496 222.429 109.245 222.079 109.988C221.707 110.796 221.282 111.579 220.807 112.331C220.627 112.616 220.425 112.885 220.203 113.138C220.095 113.258 219.98 113.373 219.86 113.481L219.72 113.595L219.529 113.735C219.441 113.797 219.35 113.855 219.255 113.906C219.111 113.987 218.963 114.059 218.81 114.122C218.542 114.225 218.262 114.293 217.977 114.325H217.703C217.589 114.325 217.455 114.325 217.328 114.325C217.057 114.307 216.79 114.254 216.533 114.166C216.25 114.075 215.98 113.944 215.732 113.779C215.497 113.63 215.283 113.451 215.096 113.246C214.949 113.088 214.819 112.916 214.708 112.731C214.629 112.603 214.559 112.469 214.498 112.331L214.415 112.134L214.371 112.001C214.339 111.912 214.314 111.817 214.288 111.728C214.263 111.639 214.237 111.468 214.218 111.341V111.074V110.871C214.214 110.582 214.231 110.294 214.269 110.007C214.269 109.817 214.32 109.658 214.345 109.518C214.396 109.233 214.447 108.998 214.504 108.763C214.712 107.902 214.969 107.054 215.274 106.223C215.56 105.404 215.91 104.623 216.209 103.836C216.508 103.048 216.889 102.293 217.258 101.562C218.696 98.6323 220.295 95.7834 222.047 93.0287C222.912 91.6699 223.796 90.3238 224.725 89.0095C225.653 87.6951 226.563 86.3935 227.593 85.0728L233.654 89.7206Z" fill="#FF8B7B"/>
<path d="M236.332 86.2602C237.311 90.9715 226.754 102.769 226.754 102.769L217.627 95.7845C219.762 91.9389 222.303 88.3329 225.208 85.0284C229.527 80.3488 235.219 81.0853 236.332 86.2602Z" fill="#4E4DFF"/>
<path opacity="0.2" d="M228.7 89.5426C226.156 90.4696 224.814 96.635 223.351 100.184L226.728 102.762C229.252 99.9053 231.56 96.8662 233.635 93.6698C232.42 90.9903 231.606 88.4886 228.7 89.5426Z" fill="black"/>
<path opacity="0.2" d="M206.262 222.851L205.124 228.794L209.938 230.299L211.083 224.356L206.262 222.851Z" fill="black"/>
<path opacity="0.2" d="M248.658 229.264H243.608L245.637 235.277H250.687L248.658 229.264Z" fill="black"/>
<path d="M258.884 86.025C256.948 91.3174 255.408 96.7464 254.28 102.267C253.472 106.115 252.868 109.804 252.372 113.157C251.278 121.005 250.941 127.037 250.534 129.03C246.622 128.395 231.893 126.135 223.866 124.878C222.652 96.0192 230.862 81.9042 230.862 81.9042C233.019 81.6864 235.188 81.6037 237.356 81.6566C237.807 81.6566 238.272 81.6566 238.742 81.7201C242.553 82.0917 246.339 82.681 250.082 83.4852C250.795 83.6313 251.507 83.7964 252.206 83.9678C255.8 84.8821 258.884 86.025 258.884 86.025Z" fill="#4E4DFF"/>
<path opacity="0.2" d="M255.196 96.4381L249.605 102.635C249.605 102.635 248.588 113.753 251.621 119.481C251.831 117.576 252.086 115.436 252.404 113.131C252.868 109.778 253.472 106.089 254.312 102.242C254.731 100.235 255.208 98.1842 255.743 96.1143L255.196 96.4381Z" fill="black"/>
<path d="M250.998 70.5894C249.726 74.1197 247.958 80.6788 250.133 83.5106C248.826 84.5041 247.321 85.2064 245.719 85.57C244.117 85.9336 242.456 85.9502 240.847 85.6187C237.718 85.0599 237.903 82.8503 238.793 81.7455C243.016 81.409 243.379 78.3802 243.112 75.4404L250.998 70.5894Z" fill="#FF8B7B"/>
<path opacity="0.2" d="M247.78 72.5767L243.112 75.4403C243.183 76.1259 243.193 76.8164 243.144 77.5039C244.734 77.5039 247.138 76.1514 247.551 74.5514C247.745 73.9121 247.823 73.2433 247.78 72.5767Z" fill="black"/>
<path d="M242.469 55.4331C238.908 53.7822 237.292 65.7193 239.792 67.4401C242.291 69.1608 249.128 58.5063 242.469 55.4331Z" fill="#263238"/>
<path d="M252.289 65.1796C251.214 70.0624 250.833 72.9768 247.945 75.1166C243.601 78.3422 237.858 75.1166 237.445 70.037C237.076 65.4463 238.895 58.2332 244.034 57.0204C245.165 56.7486 246.347 56.7697 247.468 57.0819C248.589 57.3941 249.611 57.9869 250.438 58.8042C251.265 59.6215 251.869 60.6361 252.193 61.7519C252.517 62.8676 252.55 64.0475 252.289 65.1796Z" fill="#FF8B7B"/>
<path d="M251.189 69.9543C248.969 71.2242 249.058 56.2266 253.396 58.4299C260.748 62.1571 256.436 66.9256 251.189 69.9543Z" fill="#263238"/>
<path d="M256.411 61.1476C254.394 62.9889 235.798 51.4519 243.741 49.5914C252.639 47.4898 260.277 57.5919 256.411 61.1476Z" fill="#263238"/>
<path d="M252.55 61.3315C250.279 62.8491 228.732 58.5885 233.979 52.347C240.25 44.8799 257.256 58.1822 252.55 61.3315Z" fill="#263238"/>
<path d="M253.669 70.9639C252.839 71.909 251.669 72.4886 250.413 72.5767C248.747 72.6783 248.263 71.11 249.02 69.7194C249.694 68.4495 251.38 66.9129 252.912 67.4653C254.445 68.0177 254.674 69.7893 253.669 70.9639Z" fill="#FF8B7B"/>
<path d="M203.667 227.118L211.82 229.658C211.82 229.658 220.05 199.891 222.855 184.449C223.707 179.751 225.526 173.261 227.708 166.334C230.455 157.61 233.775 148.2 236.465 140.847C239.302 133.094 241.426 127.621 241.426 127.621L223.892 124.891C223.892 124.891 209.652 165.604 207.82 180.874C205.918 196.755 203.667 227.118 203.667 227.118Z" fill="#4E4DFF"/>
<path opacity="0.6" d="M203.667 227.118L211.82 229.658C211.82 229.658 220.05 199.891 222.855 184.449C223.707 179.751 225.526 173.261 227.708 166.334C230.455 157.61 233.775 148.2 236.465 140.847C239.302 133.094 241.426 127.621 241.426 127.621L223.892 124.891C223.892 124.891 209.652 165.604 207.82 180.874C205.918 196.755 203.667 227.118 203.667 227.118Z" fill="black"/>
<path opacity="0.2" d="M227.708 166.347C230.455 157.622 233.775 148.212 236.465 140.86L234.971 136.771C230.156 141.583 227.606 157.546 227.708 166.347Z" fill="black"/>
<path d="M233.349 126.376C233.349 126.376 231.587 169.515 232.465 184.246C233.425 200.38 243.277 234.115 243.277 234.115H252.518C252.518 234.115 248.549 203.485 246.985 187.802C245.204 169.941 250.572 129.056 250.572 129.056L233.349 126.376Z" fill="#4E4DFF"/>
<path opacity="0.6" d="M233.349 126.376C233.349 126.376 231.587 169.515 232.465 184.246C233.425 200.38 243.277 234.115 243.277 234.115H252.518C252.518 234.115 248.549 203.485 246.985 187.802C245.204 169.941 250.572 129.056 250.572 129.056L233.349 126.376Z" fill="black"/>
<path d="M242.158 234.312H253.04V231.067L240.873 230.852L242.158 234.312Z" fill="#4E4DFF"/>
<path d="M202.579 226.991L212.297 230.032L213.283 226.896L202.471 223.333L202.579 226.991Z" fill="#4E4DFF"/>
<path d="M244.6 65.3892C244.536 65.7892 244.276 66.0813 244.015 66.0242C243.754 65.967 243.589 65.6242 243.652 65.2241C243.716 64.8241 243.977 64.532 244.237 64.5892C244.498 64.6463 244.644 64.9892 244.6 65.3892Z" fill="#263238"/>
<path d="M240.04 64.6843C239.976 65.0843 239.709 65.3764 239.448 65.3192C239.188 65.2621 239.022 64.9256 239.086 64.5192C239.149 64.1128 239.41 63.8271 239.677 63.8842C239.945 63.9414 240.097 64.2779 240.04 64.6843Z" fill="#263238"/>
<path d="M241.452 65.1099C240.78 66.2601 239.954 67.3133 238.997 68.2402C239.243 68.4748 239.537 68.6532 239.858 68.7628C240.18 68.8725 240.522 68.9108 240.86 68.8751L241.452 65.1099Z" fill="#FF5652"/>
<path d="M242.387 70.2402C242.21 70.2353 242.033 70.2183 241.859 70.1894C241.843 70.1879 241.828 70.1831 241.814 70.1755C241.8 70.1678 241.788 70.1574 241.779 70.1449C241.769 70.1324 241.762 70.118 241.759 70.1027C241.755 70.0874 241.754 70.0715 241.757 70.056C241.763 70.0258 241.78 69.9988 241.805 69.9801C241.829 69.9614 241.86 69.9523 241.891 69.9545C242.389 70.0472 242.903 70.0195 243.389 69.8737C243.874 69.7279 244.318 69.4682 244.683 69.1163C244.694 69.105 244.707 69.096 244.722 69.0899C244.737 69.0837 244.753 69.0806 244.769 69.0806C244.785 69.0806 244.8 69.0837 244.815 69.0899C244.83 69.096 244.843 69.105 244.854 69.1163C244.866 69.127 244.874 69.1398 244.88 69.154C244.887 69.1682 244.89 69.1834 244.89 69.1989C244.89 69.2143 244.887 69.2295 244.88 69.2437C244.874 69.2579 244.866 69.2707 244.854 69.2814C244.53 69.6005 244.144 69.8501 243.72 70.0149C243.295 70.1798 242.842 70.2564 242.387 70.2402Z" fill="#263238"/>
<path d="M246.215 64.1446C246.173 64.1417 246.132 64.1286 246.095 64.1065C246.059 64.0844 246.028 64.0539 246.006 64.0176C245.871 63.7505 245.675 63.5188 245.435 63.3412C245.194 63.1636 244.914 63.0451 244.619 62.9953C244.585 62.9974 244.55 62.9921 244.518 62.9797C244.485 62.9674 244.456 62.9482 244.432 62.9235C244.408 62.8989 244.389 62.8693 244.377 62.8368C244.365 62.8043 244.361 62.7697 244.363 62.7352C244.366 62.7008 244.376 62.6673 244.393 62.6371C244.41 62.6069 244.433 62.5807 244.461 62.5602C244.489 62.5397 244.521 62.5254 244.555 62.5183C244.588 62.5112 244.624 62.5115 244.657 62.5191C245.032 62.5744 245.388 62.7185 245.696 62.9395C246.004 63.1604 246.254 63.4517 246.425 63.789C246.455 63.8447 246.462 63.9098 246.444 63.9703C246.426 64.0309 246.385 64.082 246.33 64.1128C246.295 64.132 246.256 64.1429 246.215 64.1446Z" fill="#263238"/>
<path d="M238.323 62.8173C238.275 62.8141 238.229 62.7988 238.189 62.7729C238.163 62.7551 238.141 62.7324 238.125 62.7062C238.108 62.6799 238.096 62.6505 238.091 62.6198C238.086 62.589 238.087 62.5575 238.094 62.5271C238.101 62.4967 238.114 62.468 238.132 62.4427C238.343 62.127 238.626 61.8656 238.957 61.6802C239.289 61.4948 239.66 61.3905 240.04 61.376C240.104 61.376 240.165 61.4014 240.211 61.4466C240.256 61.4919 240.281 61.5533 240.281 61.6173C240.281 61.6812 240.256 61.7426 240.211 61.7879C240.165 61.8331 240.104 61.8585 240.04 61.8585C239.739 61.8675 239.446 61.9504 239.185 62.0999C238.924 62.2495 238.704 62.461 238.545 62.7157C238.519 62.7491 238.485 62.7758 238.446 62.7935C238.408 62.8111 238.365 62.8193 238.323 62.8173Z" fill="#263238"/>
<path d="M245.198 241.22C244.854 241.246 244.512 241.157 244.225 240.966C244.135 240.888 244.066 240.79 244.023 240.679C243.979 240.569 243.964 240.449 243.977 240.332C243.976 240.261 243.995 240.192 244.032 240.133C244.069 240.073 244.123 240.025 244.186 239.995C244.74 239.703 246.368 240.706 246.552 240.82C246.572 240.833 246.588 240.851 246.598 240.873C246.608 240.894 246.612 240.918 246.61 240.941C246.604 240.963 246.593 240.984 246.578 241C246.562 241.017 246.542 241.029 246.521 241.036C246.088 241.145 245.644 241.207 245.198 241.22ZM244.447 240.205C244.395 240.203 244.342 240.214 244.295 240.236C244.27 240.25 244.249 240.27 244.236 240.295C244.222 240.32 244.216 240.348 244.218 240.376C244.207 240.455 244.215 240.537 244.243 240.612C244.271 240.687 244.317 240.755 244.377 240.808C244.657 241.043 245.312 241.074 246.171 240.903C245.647 240.561 245.062 240.324 244.447 240.205Z" fill="#4E4DFF"/>
<path d="M246.508 241.043C246.489 241.048 246.469 241.048 246.451 241.043C245.929 240.763 244.918 239.658 245.026 239.093C245.045 239.006 245.093 238.927 245.162 238.871C245.232 238.814 245.318 238.783 245.408 238.782C245.498 238.773 245.59 238.781 245.677 238.807C245.765 238.833 245.846 238.877 245.916 238.935C246.502 239.417 246.622 240.839 246.629 240.928C246.63 240.95 246.625 240.971 246.615 240.99C246.605 241.009 246.59 241.025 246.572 241.036C246.551 241.045 246.529 241.047 246.508 241.043ZM245.49 239.004H245.433C245.28 239.004 245.268 239.1 245.261 239.125C245.198 239.462 245.84 240.293 246.362 240.687C246.325 240.112 246.117 239.562 245.764 239.106C245.683 239.036 245.578 239 245.471 239.004H245.49Z" fill="#4E4DFF"/>
<path d="M203.572 234.35C202.745 234.261 201.307 234.02 200.926 233.385C200.868 233.291 200.834 233.183 200.827 233.073C200.82 232.962 200.841 232.851 200.888 232.75C200.91 232.69 200.947 232.636 200.996 232.594C201.045 232.551 201.104 232.522 201.168 232.509C201.861 232.363 203.483 233.95 203.667 234.134C203.681 234.154 203.689 234.177 203.689 234.201C203.689 234.225 203.681 234.248 203.667 234.268C203.661 234.289 203.649 234.309 203.632 234.323C203.615 234.338 203.594 234.347 203.572 234.35ZM201.25 232.75H201.206C201.181 232.755 201.157 232.766 201.138 232.783C201.119 232.8 201.105 232.821 201.098 232.846C201.063 232.909 201.045 232.98 201.045 233.052C201.045 233.124 201.063 233.195 201.098 233.258C201.314 233.614 202.09 233.893 203.209 234.065C202.579 233.468 201.657 232.738 201.25 232.75Z" fill="#4E4DFF"/>
<path d="M203.572 234.35C203.545 234.358 203.516 234.358 203.489 234.35C202.993 233.912 202.166 232.509 202.427 231.994C202.49 231.874 202.63 231.74 202.948 231.81C203.066 231.832 203.178 231.878 203.277 231.946C203.376 232.014 203.459 232.102 203.521 232.204C203.979 232.896 203.699 234.229 203.686 234.287C203.683 234.307 203.675 234.327 203.661 234.342C203.648 234.358 203.63 234.37 203.61 234.376L203.572 234.35ZM202.777 231.994C202.675 231.994 202.649 232.052 202.643 232.071C202.484 232.375 203.012 233.442 203.489 233.975C203.609 233.411 203.552 232.823 203.324 232.293C203.277 232.219 203.216 232.156 203.144 232.106C203.071 232.057 202.99 232.023 202.904 232.007L202.777 231.994Z" fill="#4E4DFF"/>
<path d="M261.556 91.949C261.46 92.8252 261.365 93.5808 261.231 94.3872C261.098 95.1936 260.971 95.9682 260.824 96.7556C260.551 98.3303 260.188 99.8859 259.794 101.448C258.993 104.612 257.929 107.705 256.614 110.693L256.086 111.829L255.507 112.96L255.361 113.245L255.291 113.385L255.177 113.588C254.95 113.995 254.677 114.374 254.363 114.718C253.6 115.546 252.585 116.1 251.475 116.293C250.625 116.43 249.756 116.373 248.931 116.128C248.349 115.954 247.786 115.72 247.252 115.43C246.406 114.959 245.613 114.399 244.886 113.76C244.234 113.2 243.616 112.602 243.035 111.969C242.457 111.334 241.922 110.737 241.414 110.096C240.393 108.834 239.46 107.504 238.622 106.115L241.547 103.708C243.723 105.611 246.031 107.358 248.454 108.934C248.947 109.232 249.466 109.483 250.006 109.683C250.157 109.747 250.319 109.782 250.483 109.785C250.559 109.785 250.483 109.709 250.203 109.734C249.854 109.784 249.529 109.941 249.275 110.185C249.179 110.28 249.135 110.344 249.109 110.363V110.305L249.154 110.185L249.256 109.944L249.65 108.985L250.012 108.001C250.973 105.278 251.753 102.495 252.346 99.67C252.671 98.235 252.982 96.7937 253.231 95.346C253.479 93.8983 253.733 92.3998 253.943 91.0537L261.556 91.949Z" fill="#FF8B7B"/>
<path d="M262.542 88.9585C265.283 92.9206 261.002 106.471 261.002 106.471L248.918 103.594C249.516 99.4036 250.495 95.2762 251.844 91.2634C254.14 84.8694 259.228 84.1583 262.542 88.9585Z" fill="#4E4DFF"/>
<path d="M241.916 104.039L238.946 99.8799L235.728 105.455C235.728 105.455 239.048 108.445 240.816 106.871L241.916 104.039Z" fill="#FF8B7B"/>
<path d="M234.914 98.6416L232.471 103.378L235.734 105.442L238.946 99.8671L234.914 98.6416Z" fill="#FF8B7B"/>
<path d="M221.895 100.972L225.03 96.9272L228.013 102.642C228.013 102.642 224.579 105.486 222.862 103.842L221.895 100.972Z" fill="#FF8B7B"/>
<path d="M229.113 95.873L231.358 100.705L228.013 102.635L225.03 96.9271L229.113 95.873Z" fill="#FF8B7B"/>
<path d="M112.821 65.5925C111.727 63.5289 112.401 60.024 118.284 59.9732C124.167 59.9224 130.813 60.1954 129.796 54.8491C134.884 55.6936 138.382 60.2399 135.927 63.2305C131.99 68.0117 134.75 71.396 131.977 73.2374C128.117 75.8153 126.889 88.4762 118.424 85.3586C119.213 80.6727 105.984 69.8594 112.821 65.5925Z" fill="#263238"/>
<path d="M140.181 97.3403C140.321 98.8579 140.506 100.515 140.735 102.096C140.964 103.677 141.193 105.271 141.511 106.871C142.09 110.004 142.902 113.09 143.94 116.103L144.354 117.195L144.544 117.691C144.544 117.722 144.544 117.691 144.5 117.691C144.373 117.571 144.209 117.498 144.036 117.481C143.947 117.481 144.074 117.525 144.271 117.481C144.86 117.326 145.423 117.086 145.944 116.77C146.605 116.405 147.242 115.997 147.852 115.551C149.155 114.619 150.41 113.621 151.61 112.56C152.838 111.5 154.072 110.382 155.248 109.277L157.36 111.055C155.375 113.9 153.094 116.526 150.555 118.891C149.872 119.509 149.154 120.088 148.405 120.624C147.54 121.249 146.586 121.741 145.575 122.084C144.853 122.319 144.09 122.397 143.336 122.313C142.838 122.254 142.355 122.103 141.911 121.869C141.461 121.63 141.058 121.312 140.722 120.929C140.436 120.606 140.197 120.244 140.01 119.856C139.974 119.794 139.942 119.731 139.914 119.665L139.844 119.513L139.704 119.208L139.157 117.989C137.828 114.755 136.802 111.405 136.092 107.982C135.729 106.293 135.405 104.604 135.17 102.903C134.934 101.201 134.725 99.5182 134.616 97.7086L140.181 97.3403Z" fill="#FFC3BD"/>
<path d="M138.07 91.0286C139.978 91.5238 141.085 104.242 141.085 104.242L135.959 107.321C135.959 107.321 132.861 97.9242 133.332 93.8668C133.675 90.9143 136.62 90.6603 138.07 91.0286Z" fill="#FFC3BD"/>
<path d="M155.185 108.896L158.129 104.249L159.802 109.525C159.802 109.525 157.385 112.065 155.198 111.43L155.185 108.896Z" fill="#FFC3BD"/>
<path d="M162.454 102.706L163.612 107.207L159.802 109.525L158.129 104.249L162.454 102.706Z" fill="#FFC3BD"/>
<path d="M127.118 240.535H132.575L134.89 220.527H127.404L127.118 240.535Z" fill="#FFC3BD"/>
<path d="M92.8503 233.182L98.1355 234.547L106.251 216.184L98.9369 214.121L92.8503 233.182Z" fill="#FFC3BD"/>
<path d="M98.956 233.671L93.3147 231.277C93.2185 231.233 93.1092 231.226 93.008 231.257C92.9069 231.289 92.8212 231.357 92.7677 231.449L90.2237 235.633C90.1641 235.74 90.1277 235.859 90.1171 235.982C90.1064 236.104 90.1217 236.227 90.1618 236.344C90.202 236.46 90.2663 236.566 90.3503 236.656C90.4344 236.746 90.5365 236.817 90.6499 236.865C92.6342 237.665 93.6327 237.951 96.1131 239.005C97.6395 239.639 99.8019 240.757 101.907 241.652C104.012 242.548 105.017 240.509 104.216 239.951C100.641 237.411 100.514 236.008 99.662 234.331C99.511 234.036 99.2613 233.802 98.956 233.671Z" fill="#263238"/>
<path d="M132.759 239.9H126.628C126.523 239.899 126.421 239.937 126.341 240.006C126.261 240.075 126.21 240.17 126.196 240.275L125.496 245.119C125.484 245.242 125.497 245.365 125.536 245.482C125.574 245.599 125.637 245.706 125.72 245.797C125.802 245.888 125.903 245.961 126.016 246.01C126.129 246.06 126.251 246.085 126.374 246.084C128.511 246.046 129.554 245.926 132.238 245.926C133.891 245.926 137.326 246.097 139.615 246.097C141.905 246.097 142.026 243.837 141.072 243.627C136.798 242.713 135.113 241.443 133.675 240.236C133.419 240.021 133.095 239.902 132.759 239.9Z" fill="#263238"/>
<path d="M138.388 91.0225C138.388 91.0225 140.983 91.9368 135.78 123.9H113.641C114.016 114.897 114.023 109.347 109.717 90.8828C112.817 90.232 115.961 89.8076 119.123 89.6129C122.473 89.3745 125.835 89.3745 129.185 89.6129C133.51 90.0192 138.388 91.0225 138.388 91.0225Z" fill="#263238"/>
<path d="M120.122 78.2915C120.758 81.5234 121.394 87.4475 119.124 89.6C121.954 92.5991 125.25 95.1227 128.886 97.0734C132.028 91.9938 129.185 89.6 129.185 89.6C125.579 88.7428 125.668 86.0697 126.298 83.5553L120.122 78.2915Z" fill="#FFC3BD"/>
<path d="M120.376 86.8823C122.283 87.0452 124.202 87.0069 126.1 86.768C126.119 86.7652 126.138 86.7687 126.154 86.778C126.17 86.7872 126.182 86.8016 126.189 86.8188C126.247 86.9648 126.399 87.3649 126.52 87.6379C126.529 87.6556 126.531 87.6762 126.525 87.6952C126.519 87.7141 126.506 87.7301 126.488 87.7395C125.852 88.0633 122.704 88.476 120.128 87.9935C120.117 87.9914 120.105 87.9868 120.096 87.98C120.086 87.9732 120.078 87.9643 120.072 87.9541C120.066 87.9438 120.062 87.9324 120.061 87.9206C120.06 87.9087 120.061 87.8968 120.065 87.8855C120.167 87.5046 120.275 87.0982 120.313 86.9458C120.314 86.9294 120.321 86.9141 120.333 86.9025C120.345 86.8909 120.36 86.8837 120.376 86.8823Z" fill="#4E4DFF"/>
<path opacity="0.2" d="M122.641 80.4629L126.298 83.5805C126.142 84.1629 126.038 84.7578 125.986 85.3584C124.606 85.1615 122.711 83.6504 122.564 82.1836C122.49 81.61 122.516 81.0277 122.641 80.4629Z" fill="black"/>
<path d="M116.707 72.3863C117.979 77.6437 118.398 79.8914 121.572 82.1455C126.342 85.5298 132.53 82.8249 132.861 77.3008C133.16 72.3228 131.029 64.5637 125.445 63.3699C124.215 63.1005 122.937 63.1497 121.731 63.5128C120.525 63.8759 119.432 64.5408 118.557 65.4444C117.681 66.348 117.051 67.4601 116.727 68.6751C116.404 69.8902 116.397 71.1677 116.707 72.3863Z" fill="#FFC3BD"/>
<path d="M135.806 123.9C135.806 123.9 140.105 165.864 139.749 182.475C139.38 199.758 135.933 221.124 135.933 221.124H126.419C126.419 221.124 126.826 200.768 126.171 183.795C125.465 165.293 119.575 123.9 119.575 123.9H135.806Z" fill="#4E4DFF"/>
<path d="M125.604 222.07H136.334L137.116 219.315L125.102 218.978L125.604 222.07Z" fill="#263238"/>
<path opacity="0.2" d="M126.247 134.345C131.685 145.273 127.334 165.217 125.414 172.633C124.428 161.489 122.762 147.87 121.464 137.869C122.291 132.212 123.76 129.304 126.247 134.345Z" fill="black"/>
<path d="M129.948 123.9C129.948 123.9 124.93 167.528 121.14 181.535C116.637 198.158 107.44 216.521 107.44 216.521L97.9001 213.835C97.9001 213.835 103.249 191.421 106.69 182.659C114.035 163.966 107.745 136.104 113.616 123.9H129.948Z" fill="#4E4DFF"/>
<path d="M97.3342 215.283L107.224 218.019L109.005 215.486L98.0338 211.835L97.3342 215.283Z" fill="#263238"/>
<path d="M125.598 72.4945C125.674 72.9262 125.967 73.2374 126.234 73.1866C126.501 73.1358 126.686 72.7421 126.609 72.3103C126.533 71.8786 126.241 71.5674 125.973 71.6182C125.706 71.669 125.522 72.0627 125.598 72.4945Z" fill="#263238"/>
<path d="M130.495 71.6243C130.578 72.0561 130.864 72.3672 131.131 72.3164C131.398 72.2656 131.583 71.8783 131.506 71.4466C131.43 71.0148 131.137 70.7037 130.87 70.7545C130.603 70.8053 130.419 71.1926 130.495 71.6243Z" fill="#263238"/>
<path d="M130.756 70.799L131.748 70.3164C131.748 70.3164 131.348 71.218 130.756 70.799Z" fill="#263238"/>
<path d="M129.109 72.5771C129.671 73.4955 130.355 74.3329 131.144 75.0662C130.95 75.2615 130.716 75.4126 130.458 75.509C130.2 75.6055 129.924 75.645 129.649 75.6249L129.109 72.5771Z" fill="#ED847E"/>
<path d="M127.36 77.6566C127.607 77.6562 127.854 77.635 128.097 77.5931C128.114 77.5901 128.13 77.5837 128.145 77.5743C128.159 77.565 128.171 77.5528 128.181 77.5385C128.19 77.5243 128.197 77.5083 128.2 77.4915C128.203 77.4747 128.203 77.4574 128.199 77.4407C128.197 77.4241 128.191 77.4082 128.183 77.3939C128.174 77.3797 128.162 77.3673 128.148 77.3578C128.135 77.3482 128.119 77.3416 128.103 77.3384C128.086 77.3352 128.069 77.3355 128.053 77.3391C127.515 77.4465 126.96 77.426 126.432 77.2793C125.904 77.1326 125.418 76.8638 125.013 76.4946C125.002 76.4823 124.988 76.4725 124.972 76.4658C124.957 76.459 124.941 76.4556 124.924 76.4556C124.907 76.4556 124.891 76.459 124.875 76.4658C124.86 76.4725 124.846 76.4823 124.835 76.4946C124.811 76.5194 124.798 76.5524 124.798 76.5867C124.798 76.621 124.811 76.654 124.835 76.6788C125.518 77.3181 126.423 77.6685 127.36 77.6566Z" fill="#263238"/>
<path d="M114.939 64.8496C118.068 66.3862 121.191 65.7195 121.35 69.5991C121.509 73.4786 116.16 79.7583 114.939 75.3136C113.718 70.869 114.939 64.8496 114.939 64.8496Z" fill="#263238"/>
<path d="M115.874 66.8622C119.912 68.494 131.036 68.9195 130.794 63.9414C130.552 58.9634 120.936 61.1667 118.182 62.2334C115.428 63.3001 115.874 66.8622 115.874 66.8622Z" fill="#263238"/>
<path d="M116.484 76.3486C116.684 76.8264 116.976 77.2602 117.344 77.6252C117.711 77.9902 118.148 78.2792 118.627 78.4757C119.899 78.9963 120.707 77.8788 120.478 76.5708C120.268 75.4088 119.353 73.7326 117.998 73.7707C117.7 73.7817 117.409 73.8676 117.153 74.0204C116.897 74.1732 116.684 74.3881 116.533 74.6451C116.382 74.902 116.298 75.1929 116.29 75.4906C116.281 75.7884 116.348 76.0834 116.484 76.3486Z" fill="#FFC3BD"/>
<path d="M123.703 69.5992C123.738 69.6 123.772 69.593 123.804 69.5788C123.836 69.5645 123.864 69.5433 123.887 69.5167C124.105 69.277 124.376 69.0913 124.679 68.9745C124.981 68.8577 125.307 68.8129 125.63 68.8437C125.697 68.8551 125.766 68.8405 125.823 68.8027C125.88 68.7649 125.92 68.7069 125.935 68.6405C125.946 68.5724 125.931 68.5027 125.892 68.4459C125.852 68.389 125.793 68.3496 125.725 68.3357C125.317 68.2875 124.903 68.3373 124.518 68.4809C124.133 68.6244 123.788 68.8576 123.512 69.1611C123.464 69.2107 123.438 69.2767 123.438 69.3453C123.438 69.4139 123.464 69.4798 123.512 69.5294C123.564 69.5763 123.632 69.6013 123.703 69.5992Z" fill="#263238"/>
<path d="M131.723 68.9326C131.756 68.9337 131.788 68.928 131.819 68.916C131.85 68.904 131.877 68.8859 131.901 68.8627C131.925 68.8391 131.944 68.8109 131.957 68.7799C131.97 68.7488 131.977 68.7155 131.977 68.6818C131.977 68.6481 131.97 68.6148 131.957 68.5837C131.944 68.5526 131.925 68.5245 131.901 68.5008C131.626 68.1959 131.28 67.9621 130.895 67.8195C130.51 67.6768 130.095 67.6296 129.687 67.6817C129.654 67.6878 129.623 67.7004 129.595 67.7187C129.567 67.7371 129.542 67.7608 129.523 67.7886C129.504 67.8163 129.491 67.8475 129.484 67.8804C129.478 67.9133 129.478 67.9472 129.484 67.9802C129.496 68.0472 129.535 68.1067 129.591 68.1459C129.646 68.1851 129.715 68.2008 129.783 68.1897C130.103 68.1517 130.427 68.1893 130.73 68.2996C131.033 68.4099 131.305 68.5898 131.526 68.8246C131.549 68.8559 131.578 68.8817 131.612 68.9003C131.646 68.919 131.684 68.93 131.723 68.9326Z" fill="#263238"/>
<path d="M112.484 98.7941C111.384 101.664 110.328 104.68 109.393 107.645C108.46 110.571 107.735 113.558 107.224 116.585C107.154 116.954 107.122 117.316 107.084 117.678L107.027 118.217V118.446C107.09 118.867 107.244 119.27 107.479 119.627C108.231 120.851 109.107 121.996 110.092 123.043C112.134 125.322 114.487 127.488 116.809 129.634L115.2 131.881C112.315 130.218 109.592 128.29 107.065 126.122C105.696 124.969 104.47 123.656 103.414 122.211C102.703 121.253 102.232 120.138 102.041 118.96C102.014 118.75 102.001 118.537 102.003 118.325C102.003 118.192 102.003 118.186 102.003 118.116V117.951V117.316C102.003 116.871 102.041 116.427 102.092 116.001C102.453 112.648 103.12 109.335 104.082 106.102C104.977 102.91 106.056 99.7727 107.313 96.7051L112.484 98.7941Z" fill="#FFC3BD"/>
<path d="M109.768 90.8638C107.593 91.7527 104.871 103.633 104.871 103.633L109.495 107.442C109.495 107.442 113.851 98.553 114.042 94.502C114.156 91.4098 111.676 90.0828 109.768 90.8638Z" fill="#FFC3BD"/>
<path d="M101.462 235.385C101.561 235.334 101.648 235.261 101.716 235.172C101.785 235.083 101.832 234.98 101.856 234.871C101.881 234.797 101.885 234.718 101.868 234.642C101.851 234.566 101.814 234.496 101.761 234.439C101.29 233.925 99.3439 234.261 99.1213 234.299C99.097 234.306 99.0749 234.319 99.057 234.337C99.0392 234.355 99.0263 234.377 99.0195 234.401C99.0137 234.426 99.0154 234.452 99.0244 234.476C99.0335 234.499 99.0495 234.52 99.0704 234.534C99.6555 234.96 100.737 235.646 101.385 235.417C101.412 235.41 101.438 235.4 101.462 235.385ZM99.4775 234.49C100.26 234.382 101.322 234.331 101.57 234.598C101.589 234.627 101.598 234.661 101.598 234.696C101.598 234.731 101.589 234.765 101.57 234.795C101.556 234.877 101.521 234.954 101.469 235.018C101.416 235.083 101.348 235.132 101.271 235.163C100.947 235.296 100.279 235.049 99.4775 234.49Z" fill="#4E4DFF"/>
<path d="M100.031 234.262C100.597 233.989 101.176 233.569 101.258 233.182C101.279 233.081 101.264 232.977 101.217 232.885C101.169 232.794 101.092 232.722 100.998 232.681C100.912 232.631 100.816 232.6 100.718 232.59C100.619 232.58 100.519 232.591 100.425 232.623C99.6812 232.877 99.0515 234.319 99.0261 234.376C99.0149 234.395 99.009 234.417 99.009 234.439C99.009 234.462 99.0149 234.484 99.0261 234.503C99.0381 234.521 99.0554 234.536 99.0757 234.545C99.0961 234.554 99.1186 234.557 99.1406 234.554C99.4507 234.503 99.7511 234.404 100.031 234.262ZM100.432 232.903L100.508 232.871C100.567 232.849 100.63 232.841 100.693 232.846C100.755 232.852 100.816 232.871 100.87 232.903C101.01 232.985 101.017 233.068 101.004 233.125C100.928 233.5 100.012 234.071 99.3695 234.249C99.5992 233.715 99.9655 233.251 100.432 232.903Z" fill="#4E4DFF"/>
<path d="M134.807 240.84C135.276 240.883 135.745 240.764 136.136 240.503C136.224 240.424 136.291 240.325 136.331 240.214C136.371 240.104 136.383 239.985 136.365 239.868C136.362 239.796 136.34 239.727 136.302 239.666C136.265 239.605 136.212 239.554 136.149 239.519C135.513 239.157 133.306 240.268 133.058 240.395C133.034 240.407 133.014 240.426 133.001 240.45C132.989 240.474 132.984 240.502 132.988 240.528C132.993 240.555 133.005 240.579 133.023 240.598C133.041 240.617 133.064 240.63 133.09 240.636C133.655 240.755 134.23 240.823 134.807 240.84ZM135.78 239.716C135.863 239.711 135.946 239.726 136.022 239.76C136.048 239.773 136.07 239.793 136.086 239.818C136.102 239.842 136.111 239.871 136.111 239.9C136.123 239.976 136.115 240.054 136.089 240.126C136.062 240.198 136.017 240.263 135.958 240.313C135.628 240.611 134.731 240.662 133.523 240.465C134.228 240.093 134.991 239.844 135.78 239.728V239.716Z" fill="#4E4DFF"/>
<path d="M133.116 240.662H133.173C133.809 240.37 135.081 239.195 135.004 238.579C135.004 238.433 134.877 238.249 134.521 238.211C134.394 238.199 134.265 238.212 134.143 238.25C134.02 238.289 133.907 238.351 133.809 238.433C133.122 239.004 132.995 240.471 132.988 240.535C132.988 240.557 132.992 240.579 133.002 240.599C133.012 240.619 133.027 240.636 133.046 240.649C133.066 240.662 133.091 240.667 133.116 240.662ZM134.388 238.452H134.464C134.699 238.452 134.718 238.566 134.718 238.598C134.782 238.973 133.911 239.868 133.243 240.293C133.295 239.676 133.54 239.09 133.942 238.617C134.006 238.559 134.082 238.514 134.164 238.485C134.246 238.457 134.333 238.446 134.419 238.452H134.388Z" fill="#4E4DFF"/>
<path d="M113.311 122.605L112.745 124.586C112.668 124.738 112.846 124.891 113.107 124.891H135.914C136.111 124.891 136.277 124.795 136.289 124.668L136.493 122.687C136.493 122.554 136.334 122.44 136.111 122.44H113.673C113.604 122.433 113.533 122.445 113.47 122.474C113.406 122.503 113.351 122.548 113.311 122.605Z" fill="#4E4DFF"/>
<path opacity="0.8" d="M113.311 122.605L112.745 124.586C112.668 124.738 112.846 124.891 113.107 124.891H135.914C136.111 124.891 136.277 124.795 136.289 124.668L136.493 122.687C136.493 122.554 136.334 122.44 136.111 122.44H113.673C113.604 122.433 113.533 122.445 113.47 122.474C113.406 122.503 113.351 122.548 113.311 122.605Z" fill="white"/>
<path d="M116.325 125.107H115.721C115.607 125.107 115.511 125.05 115.524 124.973L115.804 122.396C115.804 122.326 115.918 122.262 116.033 122.262H116.669C116.789 122.262 116.879 122.326 116.872 122.396L116.592 124.973C116.548 125.05 116.446 125.107 116.325 125.107Z" fill="#4E4DFF"/>
<path d="M134.222 125.107H133.624C133.504 125.107 133.415 125.05 133.421 124.973L133.701 122.396C133.701 122.326 133.815 122.262 133.936 122.262H134.534C134.655 122.262 134.744 122.326 134.737 122.396L134.458 124.973C134.451 125.05 134.343 125.107 134.222 125.107Z" fill="#4E4DFF"/>
<path d="M125.274 125.107H124.676C124.555 125.107 124.46 125.05 124.472 124.973L124.752 122.396C124.752 122.326 124.867 122.262 124.987 122.262H125.585C125.706 122.262 125.795 122.326 125.789 122.396L125.509 124.973C125.496 125.05 125.395 125.107 125.274 125.107Z" fill="#4E4DFF"/>
<path d="M116.166 129.158L122.043 129.659L118.119 133.571C118.119 133.571 114.754 132.599 114.303 130.396L116.166 129.158Z" fill="#FFC3BD"/>
<path d="M155.751 101.785L151.935 120.008C151.885 120.243 151.883 120.486 151.927 120.722C151.972 120.958 152.063 121.183 152.194 121.384C152.326 121.585 152.496 121.758 152.695 121.894C152.894 122.029 153.117 122.124 153.353 122.173L188.104 129.45C188.581 129.546 189.077 129.451 189.484 129.184C189.891 128.918 190.177 128.503 190.279 128.028L194.095 109.804C194.192 109.329 194.097 108.835 193.831 108.429C193.566 108.022 193.151 107.737 192.677 107.633L157.926 100.363C157.472 100.272 157 100.354 156.603 100.591C156.386 100.721 156.198 100.893 156.051 101.099C155.905 101.304 155.802 101.538 155.751 101.785Z" fill="#4E4DFF"/>
<path opacity="0.5" d="M155.751 101.785L151.935 120.008C151.885 120.243 151.883 120.486 151.927 120.722C151.972 120.958 152.063 121.183 152.194 121.384C152.326 121.585 152.496 121.758 152.695 121.894C152.894 122.029 153.117 122.124 153.353 122.173L188.104 129.45C188.581 129.546 189.077 129.451 189.484 129.184C189.891 128.918 190.177 128.503 190.279 128.028L194.095 109.804C194.192 109.329 194.097 108.835 193.831 108.429C193.566 108.022 193.151 107.737 192.677 107.633L157.926 100.363C157.472 100.272 157 100.354 156.603 100.591C156.386 100.721 156.198 100.893 156.051 101.099C155.905 101.304 155.802 101.538 155.751 101.785Z" fill="black"/>
<path d="M193.796 108.395L188.308 111.182L177.419 116.7C175.903 117.473 174.168 117.706 172.501 117.36C170.834 117.013 169.336 116.108 168.255 114.795L160.718 105.595L156.597 100.585C156.997 100.35 157.47 100.268 157.926 100.356L160.96 100.991L188.537 106.763L192.671 107.627C193.13 107.731 193.532 108.005 193.796 108.395Z" fill="#4E4DFF"/>
<path d="M189.624 86.2222L188.537 106.788L188.308 111.182L177.419 116.7C175.903 117.473 174.168 117.706 172.501 117.359C170.834 117.013 169.336 116.108 168.255 114.795L160.718 105.595L160.96 100.991L161.818 84.7364C161.845 84.2957 162.043 83.8829 162.372 83.5871C162.7 83.2913 163.132 83.1363 163.574 83.1554L188.041 84.4253C188.263 84.4374 188.482 84.4937 188.683 84.5909C188.883 84.6882 189.063 84.8245 189.21 84.9918C189.358 85.1591 189.47 85.3541 189.541 85.5654C189.612 85.7767 189.641 85.9999 189.624 86.2222Z" fill="#4E4DFF"/>
<path opacity="0.9" d="M189.624 86.2222L188.537 106.788L188.308 111.182L177.419 116.7C175.903 117.473 174.168 117.706 172.501 117.359C170.834 117.013 169.336 116.108 168.255 114.795L160.718 105.595L160.96 100.991L161.818 84.7364C161.845 84.2957 162.043 83.8829 162.372 83.5871C162.7 83.2913 163.132 83.1363 163.574 83.1554L188.041 84.4253C188.263 84.4374 188.482 84.4937 188.683 84.5909C188.883 84.6882 189.063 84.8245 189.21 84.9918C189.358 85.1591 189.47 85.3541 189.541 85.5654C189.612 85.7767 189.641 85.9999 189.624 86.2222Z" fill="white"/>
<path opacity="0.1" d="M169.552 112.255L160.82 103.689L160.718 105.594L168.28 114.782C169.361 116.095 170.859 117 172.526 117.346C174.193 117.693 175.929 117.46 177.445 116.687L188.333 111.169L188.441 109.112L177.464 113.734C176.147 114.298 174.691 114.459 173.283 114.195C171.874 113.932 170.576 113.257 169.552 112.255Z" fill="black"/>
<path d="M164.464 90.94L164.731 85.9048L165.749 85.9619L165.482 90.9908L164.464 90.94Z" fill="#4E4DFF"/>
<path d="M166.461 91.0479L166.728 86.0127L167.72 86.0635L169.628 89.5367L169.8 86.1714L170.748 86.2222L170.48 91.2574L169.463 91.2066L167.58 87.816L167.409 91.0987L166.461 91.0479Z" fill="#4E4DFF"/>
<path d="M172.827 91.3843L171.288 86.2539L172.395 86.3111L173.476 90.1208L174.907 86.4634L175.988 86.5206L173.915 91.4605L172.827 91.3843Z" fill="#4E4DFF"/>
<path d="M176.211 91.562L176.478 86.5269L177.496 86.5777L177.229 91.6128L176.211 91.562Z" fill="#4E4DFF"/>
<path d="M179.334 91.7271L179.556 87.5428L178.062 87.4602L178.106 86.6094L182.113 86.8189L182.069 87.6697L180.574 87.5935L180.351 91.7779L179.334 91.7271Z" fill="#4E4DFF"/>
<path d="M182.501 91.8921L182.768 86.8569L186.508 87.0538L186.463 87.9046L183.741 87.7586L183.684 88.8761L186.228 89.0094L186.183 89.8603L183.639 89.7269L183.569 91.0984L186.387 91.2445L186.342 92.0953L182.501 91.8921Z" fill="#4E4DFF"/>
<path d="M125.401 132.777L121.935 135.875L117.279 133.259L122.043 129.659L125.401 132.777Z" fill="#FFC3BD"/>
<path d="M125.853 71.6627L126.838 71.1802C126.838 71.1802 126.45 72.0882 125.853 71.6627Z" fill="#263238"/>
</g>
<defs>
<filter id="filter0_dddd_357_764" x="-21" y="-8" width="404" height="412" filterUnits="userSpaceOnUse" color-interpolation-filters="sRGB">
<feFlood flood-opacity="0" result="BackgroundImageFix"/>
<feColorMatrix in="SourceAlpha" type="matrix" values="0 0 0 0 0 0 0 0 0 0 0 0 0 0 0 0 0 0 127 0" result="hardAlpha"/>
<feOffset dy="7"/>
<feGaussianBlur stdDeviation="7.5"/>
<feColorMatrix type="matrix" values="0 0 0 0 0 0 0 0 0 0 0 0 0 0 0 0 0 0 0.1 0"/>
<feBlend mode="normal" in2="BackgroundImageFix" result="effect1_dropShadow_357_764"/>
<feColorMatrix in="SourceAlpha" type="matrix" values="0 0 0 0 0 0 0 0 0 0 0 0 0 0 0 0 0 0 127 0" result="hardAlpha"/>
<feOffset dy="27"/>
<feGaussianBlur stdDeviation="13.5"/>
<feColorMatrix type="matrix" values="0 0 0 0 0 0 0 0 0 0 0 0 0 0 0 0 0 0 0.09 0"/>
<feBlend mode="normal" in2="effect1_dropShadow_357_764" result="effect2_dropShadow_357_764"/>
<feColorMatrix in="SourceAlpha" type="matrix" values="0 0 0 0 0 0 0 0 0 0 0 0 0 0 0 0 0 0 127 0" result="hardAlpha"/>
<feOffset dy="61"/>
<feGaussianBlur stdDeviation="18"/>
<feColorMatrix type="matrix" values="0 0 0 0 0 0 0 0 0 0 0 0 0 0 0 0 0 0 0.05 0"/>
<feBlend mode="normal" in2="effect2_dropShadow_357_764" result="effect3_dropShadow_357_764"/>
<feColorMatrix in="SourceAlpha" type="matrix" values="0 0 0 0 0 0 0 0 0 0 0 0 0 0 0 0 0 0 127 0" result="hardAlpha"/>
<feOffset dy="108"/>
<feGaussianBlur stdDeviation="21.5"/>
<feColorMatrix type="matrix" values="0 0 0 0 0 0 0 0 0 0 0 0 0 0 0 0 0 0 0.01 0"/>
<feBlend mode="normal" in2="effect3_dropShadow_357_764" result="effect4_dropShadow_357_764"/>
<feBlend mode="normal" in="SourceGraphic" in2="effect4_dropShadow_357_764" result="shape"/>
</filter>
<clipPath id="clip0_357_764">
<rect width="318" height="253" fill="white" transform="translate(22)"/>
</clipPath>
</defs>
</svg>
